<svg width="16" height="16" viewBox="0 0 16 16" fill="none" xmlns="http://www.w3.org/2000/svg">
<path d="M8 10.0924L3.56131 14.5435C3.28071 14.8225 2.92357 14.962 2.4899 14.962C2.05623 14.962 1.69909 14.8225 1.41848 14.5435C1.13949 14.2645 1 13.9094 1 13.4783C1 13.0471 1.13949 12.692 1.41848 12.413L5.86957 7.96196L1.41848 3.56139C1.13949 3.28076 1 2.92361 1 2.48993C1 2.05624 1.13949 1.69909 1.41848 1.41848C1.69746 1.13949 2.05254 1 2.4837 1C2.91485 1 3.26993 1.13949 3.54891 1.41848L8 5.86957L12.4006 1.41848C12.6812 1.13949 13.0384 1 13.472 1C13.9057 1 14.2629 1.13949 14.5435 1.41848C14.8478 1.72283 15 2.08424 15 2.50272C15 2.9212 14.8478 3.26993 14.5435 3.54891L10.0924 7.96196L14.5435 12.4006C14.8225 12.6812 14.962 13.0384 14.962 13.4721C14.962 13.9057 14.8225 14.2629 14.5435 14.5435C14.2391 14.8478 13.8777 15 13.4592 15C13.0408 15 12.692 14.8478 12.413 14.5435L8 10.0924Z" fill="#1FBBC7"/>
</svg>
