<svg width="18" height="18" viewBox="0 0 18 18" fill="none" xmlns="http://www.w3.org/2000/svg">
<g clip-path="url(#clip0_92_61)">
<path d="M8.33213 0.0209348C8.26533 0.027966 8.06143 0.0525754 7.88213 0.0736691C6.67275 0.214294 5.32979 0.685388 4.2751 1.34281C3.1501 2.04593 2.04619 3.14984 1.33604 4.2889C0.706738 5.29437 0.249707 6.59164 0.0633789 7.89242C0.00361328 8.30726 0.00361328 9.69242 0.0633789 10.1073C0.211035 11.1444 0.485254 12.0514 0.91416 12.9198C1.3958 13.9041 1.87041 14.5651 2.65088 15.3491C3.42783 16.1225 4.09932 16.6041 5.04502 17.0682C5.70596 17.3916 6.13135 17.5498 6.80283 17.7186C7.4919 17.8909 8.00869 17.9647 8.71885 17.9893C10.7685 18.0596 12.7337 17.4338 14.4142 16.1787C14.8782 15.8307 15.736 14.9905 16.0735 14.5545C16.9595 13.4049 17.5501 12.1217 17.8208 10.7752C17.9544 10.1143 17.9825 9.8014 17.9825 8.99984C17.9825 8.02953 17.8911 7.33343 17.6661 6.58812C17.5923 6.34906 17.5536 6.27875 17.4271 6.16273C17.0509 5.8182 16.4884 5.91312 16.2634 6.36664C16.1509 6.59515 16.1509 6.69711 16.2563 7.10843C16.3021 7.28773 16.3688 7.58656 16.4005 7.76937C16.4813 8.22289 16.5095 9.27758 16.4532 9.78031C16.2599 11.5276 15.5286 13.0569 14.2911 14.2909C13.247 15.3385 11.9567 16.0416 10.554 16.3299C9.98447 16.4494 9.59424 16.4881 8.99307 16.4881C6.98565 16.4881 5.13643 15.7217 3.70908 14.2909C3.24854 13.8338 2.84775 13.3205 2.54189 12.8073C1.26572 10.6381 1.16377 7.97679 2.26768 5.71273C3.27314 3.65258 5.18916 2.1514 7.41807 1.67328C8.48682 1.44476 9.69268 1.45531 10.7368 1.70492C11.4892 1.88422 12.3505 2.24281 12.9868 2.64711C13.3278 2.86156 13.4474 2.90023 13.711 2.87562C14.1786 2.82992 14.481 2.28148 14.2771 1.84554C14.1962 1.67328 14.0837 1.56429 13.7638 1.3639C12.7513 0.720544 11.5278 0.27406 10.2481 0.084216C9.91065 0.0349973 8.58877 -0.0107059 8.33213 0.0209348Z" fill="white"/>
<path d="M16.9457 1.56758C16.8649 1.60273 15.4621 2.97734 12.9133 5.52969L9.00041 9.43906L7.69259 8.13477C6.58166 7.03086 6.36017 6.82695 6.23713 6.7918C6.01564 6.72852 5.86799 6.74258 5.66408 6.84102C5.34767 6.99922 5.1965 7.32969 5.27736 7.68125C5.31603 7.85 5.3758 7.91328 6.94025 9.48828C8.03009 10.5816 8.60666 11.1371 8.70158 11.1828C8.88088 11.2672 9.11994 11.2672 9.29924 11.1828C9.39767 11.1371 10.7477 9.8082 13.6832 6.86914C18.1692 2.37266 18.0004 2.55547 18.0004 2.24961C18.0004 1.98242 17.8246 1.7082 17.575 1.57812C17.4133 1.49727 17.1215 1.49023 16.9457 1.56758Z" fill="white"/>
</g>
<defs>
<clipPath id="clip0_92_61">
<rect width="18" height="18" fill="white"/>
</clipPath>
</defs>
</svg>
