<svg width="44" height="44" viewBox="0 0 44 44" fill="none" xmlns="http://www.w3.org/2000/svg">
<rect x="44" y="44" width="44" height="44" rx="22" transform="rotate(-180 44 44)" fill="#0096AA"/>
<path d="M35.75 23.375C36.5094 23.375 37.125 22.7594 37.125 22C37.125 21.2406 36.5094 20.625 35.75 20.625L35.75 23.375ZM7.27773 21.0277C6.74076 21.5647 6.74076 22.4353 7.27773 22.9723L16.0282 31.7227C16.5651 32.2597 17.4357 32.2597 17.9727 31.7227C18.5097 31.1857 18.5097 30.3151 17.9727 29.7782L10.1945 22L17.9727 14.2218C18.5097 13.6849 18.5097 12.8143 17.9727 12.2773C17.4357 11.7403 16.5651 11.7403 16.0282 12.2773L7.27773 21.0277ZM35.75 22L35.75 20.625L8.25 20.625L8.25 22L8.25 23.375L35.75 23.375L35.75 22Z" fill="white"/>
</svg>
