<svg width="44" height="44" viewBox="0 0 44 44" fill="none" xmlns="http://www.w3.org/2000/svg">
<rect width="44" height="44" rx="22" fill="#0096AA" fill-opacity="0.5"/>
<path d="M8.25 20.625C7.49061 20.625 6.875 21.2406 6.875 22C6.875 22.7594 7.49061 23.375 8.25 23.375V20.625ZM36.7223 22.9723C37.2592 22.4353 37.2592 21.5647 36.7223 21.0277L27.9718 12.2773C27.4349 11.7403 26.5643 11.7403 26.0273 12.2773C25.4903 12.8143 25.4903 13.6849 26.0273 14.2218L33.8055 22L26.0273 29.7782C25.4903 30.3151 25.4903 31.1857 26.0273 31.7227C26.5643 32.2597 27.4349 32.2597 27.9718 31.7227L36.7223 22.9723ZM8.25 22V23.375H35.75V22V20.625H8.25V22Z" fill="white"/>
</svg>
