<svg width="32" height="32" viewBox="0 0 32 32" fill="none" xmlns="http://www.w3.org/2000/svg">
<path d="M13.6693 8.4574C13.9775 8.76233 14.1255 9.1308 14.1131 9.56278C14.0998 9.99477 13.939 10.3632 13.6308 10.6682L9.27769 14.9753L26.4591 14.9753C26.8957 14.9753 27.2619 15.1217 27.5578 15.4144C27.8526 15.7062 28 16.068 28 16.5C28 16.932 27.8526 17.2944 27.5578 17.5871C27.2619 17.8788 26.8957 18.0247 26.4591 18.0247L9.27769 18.0247L13.6693 22.37C13.9775 22.6749 14.1316 23.0373 14.1316 23.457C14.1316 23.8758 13.9775 24.2377 13.6693 24.5426C13.3612 24.8475 12.9949 25 12.5707 25C12.1474 25 11.7817 24.8475 11.4735 24.5426L4.42376 17.5673C4.26967 17.4148 4.16026 17.2496 4.09554 17.0717C4.03185 16.8939 4 16.7033 4 16.5C4 16.2967 4.03185 16.1061 4.09554 15.9283C4.16026 15.7504 4.26967 15.5852 4.42376 15.4327L11.512 8.41928C11.7945 8.13976 12.1474 8 12.5707 8C12.9949 8 13.3612 8.15247 13.6693 8.4574Z" fill="#0096AA"/>
</svg>
