<svg width="32" height="32" viewBox="0 0 32 32" fill="none" xmlns="http://www.w3.org/2000/svg">
<path d="M18.3307 24.5426C18.0225 24.2377 17.8745 23.8692 17.8869 23.4372C17.9002 23.0052 18.061 22.6368 18.3692 22.3318L22.7223 18.0247H5.54093C5.10433 18.0247 4.73811 17.8783 4.44225 17.5856C4.14742 17.2938 4 16.932 4 16.5C4 16.068 4.14742 15.7056 4.44225 15.4129C4.73811 15.1212 5.10433 14.9753 5.54093 14.9753H22.7223L18.3307 10.63C18.0225 10.3251 17.8684 9.96275 17.8684 9.54296C17.8684 9.12418 18.0225 8.76233 18.3307 8.4574C18.6388 8.15247 19.0051 8 19.4293 8C19.8526 8 20.2183 8.15247 20.5265 8.4574L27.5762 15.4327C27.7303 15.5852 27.8397 15.7504 27.9045 15.9283C27.9682 16.1061 28 16.2967 28 16.5C28 16.7033 27.9682 16.8939 27.9045 17.0717C27.8397 17.2496 27.7303 17.4148 27.5762 17.5673L20.488 24.5807C20.2055 24.8602 19.8526 25 19.4293 25C19.0051 25 18.6388 24.8475 18.3307 24.5426Z" fill="#0096AA"/>
</svg>
