<svg width="512" height="615" viewBox="0 0 512 615" fill="none" xmlns="http://www.w3.org/2000/svg">
<path d="M500.634 560.205C497.681 552.813 337.53 448.598 337.36 448.467C314.764 430.295 311.991 412.618 330.226 402.464C345.867 393.756 359.307 365.793 369.436 335.852C371.249 336.758 373.301 336.917 375.213 336.3C417.751 322.711 418.519 228.8 390.061 245.404C416.659 -8.40416 95.367 -8.53484 121.948 245.413C93.4811 228.791 94.2491 322.711 136.796 336.3C138.705 336.911 140.75 336.755 142.564 335.862C152.684 365.793 166.116 393.756 181.748 402.464C200.129 412.683 196.502 429.493 174.18 448.85C166.747 455.299 63.0347 518.522 33.7829 539.923C33.7293 539.949 33.6779 539.981 33.6293 540.017H33.6464C21.5634 548.865 12.9619 556.229 11.3833 560.205C3.02928 581.242 0 615 0 615H512C512 615 508.979 581.242 500.634 560.205Z" fill="#E4F7FA"/>
</svg>
