<svg xmlns="http://www.w3.org/2000/svg">

    <linearGradient id="ingr" x1="0%" x2="70.71%" y1="70.71%" y2="0%">
        <stop offset="3%" stop-color="#FFAF45"/>
        <stop offset="24%" stop-color="#FF5242"/>
        <stop offset="61%" stop-color="#FC1B7D"/>
        <stop offset="91%" stop-color="#8F37B4"/>
    </linearGradient>
    <symbol id="svg-ingr-float" viewBox="0 0 80 80">
        <path fill-rule="evenodd" fill="rgb(255, 255, 255)"
              d="M73.387,73.710 C69.194,77.742 63.387,80.000 56.452,80.000 L23.548,80.000 C16.935,80.000 11.129,77.903 6.774,73.710 C2.258,69.355 0.000,63.387 0.000,56.452 L0.000,23.387 C0.000,9.355 9.355,0.000 23.387,0.000 L56.613,0.000 C63.387,0.000 69.355,2.258 73.548,6.613 C77.742,10.807 80.000,16.613 80.000,23.387 L80.000,56.613 C80.000,63.548 77.742,69.516 73.387,73.710 ZM72.903,23.387 C72.903,18.710 71.290,14.677 68.548,11.774 C65.645,8.871 61.613,7.419 56.774,7.419 L23.548,7.419 C18.710,7.419 14.516,8.871 11.774,11.613 C8.871,14.516 7.419,18.548 7.419,23.387 L7.419,56.452 C7.419,61.452 8.871,65.484 11.774,68.387 C14.677,71.129 18.710,72.581 23.548,72.581 L56.452,72.581 C61.290,72.581 65.323,71.129 68.226,68.387 C71.129,65.645 72.903,61.613 72.903,56.613 L72.903,23.387 ZM61.452,23.387 C58.868,23.387 56.774,21.293 56.774,18.710 C56.774,16.126 58.868,14.032 61.452,14.032 C64.035,14.032 66.129,16.126 66.129,18.710 C66.129,21.293 64.035,23.387 61.452,23.387 ZM40.000,60.484 C28.548,60.484 19.355,51.290 19.355,39.839 C19.355,28.387 28.710,19.194 40.000,19.194 C51.290,19.194 60.645,28.548 60.645,39.839 C60.645,51.129 51.452,60.484 40.000,60.484 ZM40.000,26.613 C32.742,26.613 26.774,32.581 26.774,39.839 C26.774,47.097 32.742,53.064 40.000,53.064 C47.258,53.064 53.226,47.097 53.226,39.839 C53.226,32.581 47.258,26.613 40.000,26.613 Z"/>
    </symbol>
    <symbol id="svg-human-circle" viewBox="0 0 58 58">
        <path d="M29 58C12.984 58 0 45.016 0 29S12.984 0 29 0s29 12.984 29 29-12.984 29-29 29zm0-52.52C16.01 5.48 5.479 16.01 5.479 29c0 6.002 2.25 11.478 5.95 15.634.109-3.437 4.401-5.111 5.805-5.612 1.423-.507 3.451-.694 4.763-.981.75-.166 1.842-.573 2.205-1.014.364-.441.144-4.51.144-4.51s-.673-1.047-1.036-1.984c-.364-.927-.761-3.473-.761-3.473s-.75-.011-1.015-1.323c-.275-1.433-.727-2.007-.672-3.076.055-.993.573-1.047.628-1.047 0 0-.551-1.511-.617-4.675-.077-3.76 2.789-7.453 8.192-7.453 5.402 0 8.28 3.704 8.191 7.463-.077 3.176-.617 4.675-.617 4.675.055 0 .573.056.628 1.048.056 1.069-.386 1.664-.672 3.098-.265 1.312-1.014 1.312-1.014 1.312s-.397 2.536-.761 3.462c-.364.926-1.037 1.985-1.037 1.985s-.22 4.067.144 4.508c.364.431 1.455.85 2.205 1.015 1.301.286 3.34.463 4.763.97 1.385.494 5.581 2.129 5.799 5.473A23.432 23.432 0 0 0 52.521 29C52.521 16.01 41.99 5.48 29 5.48z"/>
    </symbol>
    <symbol id="svg-attention" viewBox="0 0 320 323">
        <path fill="#F08C07" fill-rule="evenodd"
              d="M146.74 7.77c80.52 0 145.8 65.27 145.8 145.79 0 80.51-65.28 145.78-145.8 145.78-22.23 0-43.3-4.97-62.15-13.87-6.03 3.18-31.89 17.37-48.65 26.25-5.87 3.1-10.1 4.3-13.07 2.24-4.05-2.81-2.29-10.06-.07-19.7 3.75-16.3 9.65-39.9 11.5-47.46C13.1 221.49.94 189.14.94 153.56.94 73.04 66.22 7.77 146.74 7.77z"/>
        <path fill-rule="evenodd"
              d="M167.3 305.79c-23.27 0-45.33-5.21-65.06-14.53-6.32 3.34-33.4 18.2-50.94 27.49-6.14 3.25-10.57 4.5-13.69 2.34-4.23-2.94-2.38-10.52-.06-20.62 3.92-17.06 10.1-41.77 12.03-49.69-22.18-26.5-34.92-60.36-34.92-97.62C14.66 68.87 83 .54 167.3.54c84.3 0 152.63 68.33 152.63 152.62 0 84.3-68.33 152.63-152.63 152.63zm0-289.42c-76 0-137.6 61.6-137.6 137.6 0 33.59 11.99 64.04 31.99 87.93 1.84 2.31 4.13 5.37 3.56 8a4360.73 4360.73 0 0 1-11.85 50.45s24.05-13.12 44.85-24.06a7.42 7.42 0 0 1 6.69.12c18.6 9.13 42.64 15.16 62.36 15.16 76 0 137.6-61.6 137.6-137.6s-61.6-137.6-137.6-137.6zm15.07 176.68c-.3 4.4-6.94 13.1-15.18 13.1-8.25 0-14.85-8-15.45-15.02-.6-7-4.9-105.76-5.09-111.76-.18-6 4.02-15.22 20.7-15.22 16.7 0 20.72 10.15 20.42 15.7-.3 5.55-5.1 108.8-5.4 113.2zm-15.1 19.23a16.43 16.43 0 1 1 0 32.86 16.43 16.43 0 0 1 0-32.86z"/>
    </symbol>
    <symbol id="svg-microscope-canal" viewBox="0 0 161 144">
        <circle cx="5.5" cy="62.5" r="2.5" fill="#3b454a"/>
        <circle cx="98.5" cy="62.5" r="62.5" fill="#3b454a"/>
        <text fill="#e3eaf0" font-family="Roboto-Bold" font-size="18" transform="translate(82.7 69.4)">
            ×25
        </text>
        <path fill="#f08c07"
              d="M15.3 143a158.7 158.7 0 0 1-9.9-50.8l.6 1.2c.7 1 1.5 1.9 2.5 2.6l.4.1.5-.2c.2-.3.2-.7-.1-.9a10 10 0 0 1-2.2-2.4 12 12 0 0 1-1.9-5V87l-.1-.3c0-.4-.3-.6-.7-.6l-.3.1c-.2.1-.5.3-.5.6 0 1.9-.4 3.7-1 5.4-.4 1.1-.9 1.6-1.4 2.2l-.7.8c-.2.3-.2.7.1.9l.4.1c.2 0 .4-.1.5-.3l.6-.7c.5-.6 1.2-1.3 1.7-2.6.2-.1.2-.2.2-.4a151.4 151.4 0 0 0 10 51.2c.1.3.3.4.6.4h.2c.4-.1.6-.5.5-.8zM23.6 139h-.2a.7.7 0 0 1-.4-.8 62.1 62.1 0 0 1 19.5-29.4c-2.3.5-4.2.2-5.5-.2-.3-.1-.6-.4-.5-.8.1-.3.4-.6.8-.5 1.2.3 3 .6 5.1.1 1.4-.3 2.6-.8 3.5-1.3l.1-.1.9-.6.2-.1h.3l.3.1.1.2.1.2v.3l-.1.3-.2.2-.9.6a10.3 10.3 0 0 0-4 7.3c0 .4-.4.6-.7.6-.4 0-.6-.4-.6-.7.1-1 .4-2.4 1.1-3.9a60.3 60.3 0 0 0-18.2 28c-.2.4-.4.5-.7.5z"
              class="st4"/>
    </symbol>
    <symbol id="svg-logo" viewBox="0 0 632.969 130.031">
        <path fill-rule="evenodd"
              d="M473.2 61.931l5.272-10.383h5.1v10.383h5.6V34.075h-13.12c-5.381 0-9 3.516-9 8.516a7.774 7.774 0 0 0 5.765 7.91l-6.045 11.43h6.428zm10.432-14.888H477.1c-2.91 0-4.558-1.593-4.558-4.175 0-2.637 1.648-4.285 4.558-4.285h6.533v8.46zM460.86 61.931V34.075h-5.6l-11.914 18.9v-18.9h-5.6v27.856h5.6l11.914-19.173v19.173h5.6zm-27.383-22.967v-4.89h-18.065v27.857h5.6V38.964h12.464zm-30.621 9.12c0 3.241-.385 5.714-1.7 7.307a5.535 5.535 0 0 1-4.339 1.868 5.269 5.269 0 0 1-4.173-1.758c-1.262-1.429-1.811-3.626-1.811-7.307 0-3.3.329-5.878 1.7-7.581a5.419 5.419 0 0 1 4.283-1.868 5.563 5.563 0 0 1 4.284 1.813c1.426 1.593 1.756 4.065 1.756 7.526zm5.546-.22c0-5.329-.934-8.4-3.24-10.822a11.376 11.376 0 0 0-8.347-3.3 11.244 11.244 0 0 0-8.29 3.3c-2.361 2.471-3.295 5.493-3.295 10.932 0 5.494.934 8.515 3.295 10.988a11.247 11.247 0 0 0 8.29 3.3 11.379 11.379 0 0 0 8.347-3.3c2.36-2.473 3.238-5.494 3.238-11.098zm-29.963 14.067V34.075h-19.054v11.592c0 10.768-2.855 11.318-5.271 11.318h-.878v4.946h2.636c5.435 0 8.895-3.076 8.895-14.888v-8.079h8.071v22.967h5.6zm-33.367-13.847c0 3.241-.384 5.714-1.7 7.307a5.529 5.529 0 0 1-4.337 1.868 5.271 5.271 0 0 1-4.174-1.758c-1.262-1.429-1.811-3.626-1.811-7.307 0-3.3.33-5.878 1.7-7.581a5.416 5.416 0 0 1 4.283-1.868 5.563 5.563 0 0 1 4.283 1.813c1.427 1.593 1.756 4.065 1.756 7.526zm5.546-.22c0-5.329-.933-8.4-3.24-10.822a11.372 11.372 0 0 0-8.346-3.3 11.248 11.248 0 0 0-8.291 3.3c-2.36 2.471-3.294 5.493-3.294 10.932 0 5.494.934 8.515 3.294 10.988a11.251 11.251 0 0 0 8.291 3.3 11.375 11.375 0 0 0 8.346-3.3c2.361-2.473 3.24-5.494 3.24-11.098zm-25.515-8.9v-4.89h-22.952v4.89h8.84v22.967h5.6V38.964h8.509zm-31.884 12.91c0 4.065-1.758 5.714-6.1 5.714-3.788 0-5.491-1.263-5.491-3.956 0-2.636 1.7-3.956 5-3.956h6.589v2.2zm5.545 10.057V43.304c0-6.318-3.9-9.559-11.641-9.559a14.1 14.1 0 0 0-6.2 1.1 10.113 10.113 0 0 0-3.624 2.912l3.679 3.461a6.063 6.063 0 0 1 2.251-1.977 8.073 8.073 0 0 1 3.734-.714c4.393 0 6.26 1.538 6.26 5.163v2.033h-7.468c-5.93 0-9.555 3.021-9.555 8.076 0 5.384 3.46 8.405 9.664 8.405 3.295 0 5.107-.5 7.413-2.8v2.527h5.491zm-28.589 0V34.075h-5.492l-8.291 16.592-8.345-16.592H242.5v27.856h5.6V44.074l6.534 12.745h3.514l6.425-12.745v17.857h5.6zm-40.012-13.847c0 3.241-.384 5.714-1.7 7.307a5.532 5.532 0 0 1-4.338 1.868 5.265 5.265 0 0 1-4.172-1.758c-1.263-1.429-1.813-3.626-1.813-7.307 0-3.3.33-5.878 1.7-7.581a5.419 5.419 0 0 1 4.283-1.868 5.561 5.561 0 0 1 4.283 1.813c1.428 1.593 1.757 4.065 1.757 7.526zm5.546-.22c0-5.329-.933-8.4-3.24-10.822a11.372 11.372 0 0 0-8.346-3.3 11.248 11.248 0 0 0-8.291 3.3c-2.361 2.471-3.294 5.493-3.294 10.932 0 5.494.933 8.515 3.294 10.988a11.251 11.251 0 0 0 8.291 3.3 11.375 11.375 0 0 0 8.346-3.3c2.361-2.473 3.24-5.494 3.24-11.098zm-25.515-8.9v-4.89h-22.952v4.89h8.84v22.967h5.6V38.964h8.511zM186 58.302l-3.788-3.735c-1.7 1.7-2.855 2.692-5.381 2.692-4.5 0-6.808-3.131-6.808-9.285 0-6.043 2.306-9.229 6.808-9.229 2.471 0 3.734.989 5.381 2.637L186 37.701a11.966 11.966 0 0 0-4.117-3.022 12.67 12.67 0 0 0-5-.934c-7.8 0-12.464 5.329-12.464 14.119 0 9.064 4.612 14.394 12.464 14.394A11.458 11.458 0 0 0 186 58.302zM45.67 121.086V58.401H0v62.685h12.232V69.319h21.206v51.767H45.67zm45.077-23.155a50.16 50.16 0 0 0-.5-7.645 20.408 20.408 0 0 0-1.671-5.621 16.073 16.073 0 0 0-3.022-4.343 17.539 17.539 0 0 0-6.262-4.212 21.884 21.884 0 0 0-7.992-1.422 21.451 21.451 0 0 0-7.933 1.424 17.566 17.566 0 0 0-6.234 4.212 16.74 16.74 0 0 0-3.021 4.386 20.689 20.689 0 0 0-1.657 5.65 49.331 49.331 0 0 0-.513 7.748 53.947 53.947 0 0 0 .484 7.806 20.444 20.444 0 0 0 1.641 5.664 16.468 16.468 0 0 0 3.065 4.4 17.336 17.336 0 0 0 6.234 4.2 21.169 21.169 0 0 0 7.933 1.438 21.6 21.6 0 0 0 7.992-1.438 17.311 17.311 0 0 0 6.262-4.2A16.942 16.942 0 0 0 88 112.767a16.675 16.675 0 0 0 1.6-3.83 27.566 27.566 0 0 0 .881-4.814c.178-1.804.266-3.873.266-6.192zm-11.44.176a48.32 48.32 0 0 1-.175 4.592 15.46 15.46 0 0 1-.953 4.256 6.928 6.928 0 0 1-2.391 3.14 7.65 7.65 0 0 1-4.487 1.218 7.292 7.292 0 0 1-4.517-1.292 7.489 7.489 0 0 1-2.582-4.05 25.482 25.482 0 0 1-.821-7.16 63.234 63.234 0 0 1 .074-3.7 23.345 23.345 0 0 1 .454-3.712 10.717 10.717 0 0 1 1.217-3.242 6.307 6.307 0 0 1 2.347-2.3 7.93 7.93 0 0 1 3.827-.865 7.5 7.5 0 0 1 4.443 1.217 6.994 6.994 0 0 1 2.407 3.122 15.385 15.385 0 0 1 .967 4.241 42.822 42.822 0 0 1 .19 4.536zm61.5 31.924v-19.07H135V75.217h-32.91v14a76.113 76.113 0 0 1-.368 7.849 44.721 44.721 0 0 1-.982 5.927 31.418 31.418 0 0 1-1.437 4.476 29.679 29.679 0 0 1-1.7 3.492h-4.665v19.07h10.824v-8.948h26.221v8.948h10.824zm-17.248-19.07h-13.99a29.679 29.679 0 0 0 1.935-5.105 41.227 41.227 0 0 0 1.173-6.37 70.746 70.746 0 0 0 .411-8.157v-5.988h10.471v25.62zm68.979 10.125V75.217h-11.264L169.22 99.34l-12.143-24.123h-11.351v45.869h11.526v-26.5l8.711 16.992h6.513l8.624-16.992v26.5h11.439zm46.276-23.155a49.956 49.956 0 0 0-.5-7.645 20.371 20.371 0 0 0-1.671-5.621 16.047 16.047 0 0 0-3.022-4.343 17.533 17.533 0 0 0-6.262-4.212 21.875 21.875 0 0 0-7.992-1.424 21.46 21.46 0 0 0-7.934 1.424 17.571 17.571 0 0 0-6.233 4.212 16.741 16.741 0 0 0-3.022 4.386 20.71 20.71 0 0 0-1.657 5.65 49.364 49.364 0 0 0-.512 7.748 53.94 53.94 0 0 0 .484 7.806 20.475 20.475 0 0 0 1.641 5.664 16.473 16.473 0 0 0 3.066 4.4 17.34 17.34 0 0 0 6.233 4.2 21.178 21.178 0 0 0 7.934 1.438 21.587 21.587 0 0 0 7.992-1.438 17.3 17.3 0 0 0 6.262-4.2 16.942 16.942 0 0 0 2.45-3.213 16.678 16.678 0 0 0 1.6-3.83 27.427 27.427 0 0 0 .881-4.814c.174-1.8.262-3.869.262-6.188zm-11.439.176a48.32 48.32 0 0 1-.175 4.592 15.508 15.508 0 0 1-.954 4.256 6.915 6.915 0 0 1-2.391 3.14 7.647 7.647 0 0 1-4.487 1.218 7.289 7.289 0 0 1-4.516-1.292 7.487 7.487 0 0 1-2.582-4.05 25.45 25.45 0 0 1-.821-7.16 63.212 63.212 0 0 1 .073-3.7 23.31 23.31 0 0 1 .455-3.712 10.693 10.693 0 0 1 1.217-3.242 6.3 6.3 0 0 1 2.347-2.3 7.927 7.927 0 0 1 3.827-.865 7.5 7.5 0 0 1 4.443 1.217 6.991 6.991 0 0 1 2.406 3.125 15.367 15.367 0 0 1 .967 4.241 42.508 42.508 0 0 1 .191 4.533zm52.259 17.255l-7.743-7.659a18.417 18.417 0 0 1-2.463 2.142 7.65 7.65 0 0 1-2.288 1.146 9.761 9.761 0 0 1-2.64.322 7.708 7.708 0 0 1-6.776-3.3q-2.287-3.3-2.288-9.9c0-4.329.763-7.587 2.288-9.8a7.719 7.719 0 0 1 6.776-3.316 9.208 9.208 0 0 1 2.625.322 8.04 8.04 0 0 1 2.316 1.13 16.083 16.083 0 0 1 2.45 2.156l7.743-7.748c-.894-.865-1.671-1.585-2.345-2.128a16.692 16.692 0 0 0-1.994-1.379 17.8 17.8 0 0 0-2.172-1.072 18.727 18.727 0 0 0-4-1.188 25 25 0 0 0-4.532-.4 21.366 21.366 0 0 0-11.091 2.773 17.829 17.829 0 0 0-7.04 7.893A28.993 28.993 0 0 0 244 97.755a31.666 31.666 0 0 0 2.421 12.957 17.706 17.706 0 0 0 7.009 8.1 21.333 21.333 0 0 0 11.16 2.8 23.418 23.418 0 0 0 4.5-.41 17.92 17.92 0 0 0 4.033-1.263 19.82 19.82 0 0 0 2.172-1.071 16.672 16.672 0 0 0 1.994-1.379 40.478 40.478 0 0 0 2.345-2.126zm16.975 5.723V97.139l15.75 23.947h13.727L308.84 96.612l16.191-21.395h-13.376l-15.046 21.745V75.217h-11.527v45.869h11.527zm68.8-23.154a50.084 50.084 0 0 0-.5-7.645 20.4 20.4 0 0 0-1.671-5.621 16.088 16.088 0 0 0-3.021-4.343 17.545 17.545 0 0 0-6.263-4.212 21.879 21.879 0 0 0-7.992-1.424 21.46 21.46 0 0 0-7.934 1.424 17.562 17.562 0 0 0-6.233 4.212 16.741 16.741 0 0 0-3.022 4.386 20.71 20.71 0 0 0-1.656 5.65 49.353 49.353 0 0 0-.513 7.748 54.083 54.083 0 0 0 .484 7.806 20.44 20.44 0 0 0 1.642 5.664 16.424 16.424 0 0 0 3.065 4.4 17.331 17.331 0 0 0 6.233 4.2 21.178 21.178 0 0 0 7.934 1.438 21.59 21.59 0 0 0 7.992-1.438 17.317 17.317 0 0 0 6.263-4.2 17.02 17.02 0 0 0 2.449-3.213 16.678 16.678 0 0 0 1.6-3.83 27.515 27.515 0 0 0 .882-4.814c.175-1.8.263-3.869.263-6.188zm-11.439.176a48.324 48.324 0 0 1-.176 4.592 15.435 15.435 0 0 1-.953 4.256 6.92 6.92 0 0 1-2.39 3.14 7.655 7.655 0 0 1-4.488 1.218 7.293 7.293 0 0 1-4.516-1.292 7.487 7.487 0 0 1-2.582-4.05 25.487 25.487 0 0 1-.821-7.16 64.988 64.988 0 0 1 .072-3.7 23.542 23.542 0 0 1 .456-3.712 10.667 10.667 0 0 1 1.217-3.242 6.311 6.311 0 0 1 2.346-2.3 7.934 7.934 0 0 1 3.828-.865 7.5 7.5 0 0 1 4.444 1.217 7 7 0 0 1 2.405 3.125 15.367 15.367 0 0 1 .968 4.241 43.036 43.036 0 0 1 .192 4.533zm56.307 9.772a11.3 11.3 0 0 0-1.6-6.192 12.414 12.414 0 0 0-4.913-4.2 11.727 11.727 0 0 0 4.386-4.079 10.686 10.686 0 0 0 1.422-5.6 12.638 12.638 0 0 0-1.761-6.677 11.51 11.51 0 0 0-4.9-4.358 17.239 17.239 0 0 0-7.509-1.556h-22.608v45.869H396.2a16.436 16.436 0 0 0 7.479-1.629 11.564 11.564 0 0 0 4.869-4.549 13.926 13.926 0 0 0 1.731-7.028zm-17.6-24.21a6.02 6.02 0 0 1 4.123 1.262 4.542 4.542 0 0 1 1.423 3.58 4.689 4.689 0 0 1-1.423 3.654 6.024 6.024 0 0 1-4.12 1.277h-8.535V83.67h8.535zm6.247 23.593a5.213 5.213 0 0 1-1.51 3.9 5.875 5.875 0 0 1-4.209 1.468h-9.063v-10.649h9.063a6.054 6.054 0 0 1 4.209 1.38 5.1 5.1 0 0 1 1.514 3.902zm56.131-.88a15.03 15.03 0 0 0-1.935-7.629 13.186 13.186 0 0 0-5.309-5.107 16.7 16.7 0 0 0-7.979-1.878h-10.554V75.217h-11.527v45.869h22.085a16.742 16.742 0 0 0 7.936-1.892 13.609 13.609 0 0 0 5.337-5.163 15.131 15.131 0 0 0 1.95-7.648zm-17.335-5.634a6.221 6.221 0 0 1 4.386 1.525 5.52 5.52 0 0 1 1.6 4.109 5.641 5.641 0 0 1-1.6 4.182 6.157 6.157 0 0 1-4.386 1.541h-8.8v-11.356h8.8zm60.884.968v-5.104a25.9 25.9 0 0 0-2.48-11.593 18.014 18.014 0 0 0-6.921-7.6 20.428 20.428 0 0 0-10.573-2.731 19.58 19.58 0 0 0-10.648 2.861 18.394 18.394 0 0 0-6.892 8.042 29.739 29.739 0 0 0-2.435 12.429q.021 11.709 5.368 17.637 5.365 5.943 15.926 5.957a27.845 27.845 0 0 0 5.074-.44 23.074 23.074 0 0 0 4.341-1.233 23.852 23.852 0 0 0 2.583-1.261 18.111 18.111 0 0 0 2.4-1.673c.835-.676 1.8-1.541 2.932-2.612l-6.951-6.78c-.66.633-1.246 1.16-1.73 1.571a12.846 12.846 0 0 1-1.422 1.028 10.281 10.281 0 0 1-1.512.747 13.486 13.486 0 0 1-2.507.719 15.877 15.877 0 0 1-2.772.251q-5.014 0-7.612-2.524c-1.729-1.7-2.683-4.256-2.859-7.69H498.6zm-11.263-7.835h-17.419q.221-4.646 2.479-7.161a8.045 8.045 0 0 1 6.233-2.523 7.945 7.945 0 0 1 6.2 2.494c1.484 1.659 2.32 4.05 2.511 7.191zm70.494-.594c1.371-.066 1.426-2.189.561-3.1-1.871-1.964-5.319-4.522-8.748-10.193-2.43-4.018-2.594-9.655 1.625-11.306 3.678-1.44 6.783 3.857 10.515 1.218 9.023-7.17 14.822-1.029 13.285 6.668a20.537 20.537 0 0 1-6.633 12.186c-1.845 1.611-3.012 3.188-1.661 4.448 1.066.995 4.286.236 6.435-.433 11.833-3.69 31.386-20.1 30.979-43.766-.166-9.633-4.693-21.518-17.073-22.508-14.24-1.138-18.4 6.3-30.834 5.06-8.894-.89-16.992-8.571-26.8.209-7.361 6.581-5.88 21.111-1.78 31.259 7.446 18.429 23.341 30.574 30.134 30.254m65.542-21.452c14.869-20.944 13.084-54.1-10.1-67.292-15.663-8.908-36.37-4.168-48.076 9.892a8.094 8.094 0 0 1-10.787 1.53c-13.662-9.239-34.593-6.524-43.508 9.239-8.324 14.723-3.017 39.8 6.307 52.826 31.758 44.371 81.665 28.318 106.164-6.195z"/>
    </symbol>
    <symbol id="svg-menu-arrow" viewBox="0 0 54.2 32.7">
        <path fill="#0096aa"
              d="M16.3 32.7L0 16.4 16.4 0l2.9 2.7L7.6 14.4h46.6v4H7.6l11.5 11.5-2.8 2.8zM2.8 16.4h49.4H2.8z"/>
    </symbol>
    <symbol id="svg-phone" viewBox="0 0 48 35">
        <path fill-rule="evenodd"
              d="M43.63 34.99H4.37A4.35 4.35 0 0 1 0 30.66V4.34A4.35 4.35 0 0 1 4.37 0h39.26A4.35 4.35 0 0 1 48 4.34v26.32A4.35 4.35 0 0 1 43.63 35zM40.42 6.77c-.82-.8-1.5-.59-1.95-.17L24.6 19.07c-.16.05-1.06.3-1.58-.1L9.35 6.68c-.79-.72-1.5-.45-2.04.12-.4.46-.5 1.43.14 1.96l9.68 8.71L8 25.88c-.4.38-.64 1 .04 1.8.64.72 1.24.85 1.82.31l9.37-8.63 1.96 1.78c.19.16.5.92 2.64.92 1.49 0 2.72-.89 2.72-.89l-.03-.03 1.93-1.73 9.43 8.5c.32.28.98.72 1.88-.4.6-.73.46-1.27.08-1.62l-9.28-8.38 9.83-8.85c.44-.4.88-.99.02-1.9z"/>
    </symbol>
    <symbol id="svg-instagram" viewBox="0 0 29 29">
        <path fill="#4E71A8" fill-rule="evenodd"
              d="M23.98 6.76a1.74 1.74 0 1 1-3.48 0 1.74 1.74 0 0 1 3.48 0zm-9.49 12.57a4.83 4.83 0 1 1 0-9.67 4.83 4.83 0 0 1 0 9.67zm0-12.28a7.45 7.45 0 1 0 0 14.9 7.45 7.45 0 0 0 0-14.9zm0-4.44c3.88 0 4.33.02 5.87.09 1.4.06 2.18.3 2.69.5.68.26 1.16.57 1.67 1.08.5.5.82 1 1.08 1.67.2.51.44 1.28.5 2.7.07 1.52.09 1.98.09 5.85 0 3.87-.02 4.33-.09 5.86a8.02 8.02 0 0 1-.5 2.7 4.5 4.5 0 0 1-1.08 1.66c-.51.5-1 .82-1.67 1.08-.51.2-1.28.44-2.7.5-1.53.07-1.98.09-5.86.09-3.87 0-4.33-.02-5.86-.09a8 8 0 0 1-2.7-.5 4.5 4.5 0 0 1-1.66-1.08c-.51-.5-.82-1-1.09-1.67a8.02 8.02 0 0 1-.5-2.69c-.07-1.53-.08-1.99-.08-5.86s.01-4.33.08-5.86c.07-1.41.3-2.18.5-2.7a4.5 4.5 0 0 1 1.09-1.66c.5-.5.99-.82 1.67-1.08.5-.2 1.27-.44 2.69-.5 1.53-.07 1.99-.09 5.86-.09zm0-2.61c-3.94 0-4.43.02-5.98.09C6.97.16 5.91.4 5 .76c-.96.37-1.76.87-2.57 1.67A7.1 7.1 0 0 0 .75 5c-.36.92-.6 1.98-.68 3.52-.07 1.55-.09 2.04-.09 5.98 0 3.94.02 4.43.1 5.98.06 1.54.3 2.6.67 3.52a7.1 7.1 0 0 0 1.67 2.57c.8.8 1.62 1.3 2.57 1.67.92.36 1.98.6 3.52.67 1.55.07 2.04.09 5.98.09 3.94 0 4.44-.02 5.98-.09 1.55-.07 2.6-.31 3.53-.67a7.12 7.12 0 0 0 2.57-1.67c.8-.81 1.3-1.62 1.67-2.57.36-.93.6-1.98.67-3.52.07-1.55.09-2.04.09-5.98 0-3.94-.02-4.43-.09-5.98-.07-1.54-.31-2.6-.67-3.52a7.08 7.08 0 0 0-1.67-2.57c-.81-.8-1.62-1.3-2.57-1.67-.93-.36-1.98-.6-3.53-.67C18.93.02 18.43 0 14.5 0z"/>
        <path fill="url(\local\templates\base\svg-sprite.svg#ingr)"
              d="M23.98 6.76a1.74 1.74 0 1 1-3.48 0 1.74 1.74 0 0 1 3.48 0zm-9.49 12.57a4.83 4.83 0 1 1 0-9.67 4.83 4.83 0 0 1 0 9.67zm0-12.28a7.45 7.45 0 1 0 0 14.9 7.45 7.45 0 0 0 0-14.9zm0-4.44c3.88 0 4.33.02 5.87.09 1.4.06 2.18.3 2.69.5.68.26 1.16.57 1.67 1.08.5.5.82 1 1.08 1.67.2.51.44 1.28.5 2.7.07 1.52.09 1.98.09 5.85 0 3.87-.02 4.33-.09 5.86a8.02 8.02 0 0 1-.5 2.7 4.5 4.5 0 0 1-1.08 1.66c-.51.5-1 .82-1.67 1.08-.51.2-1.28.44-2.7.5-1.53.07-1.98.09-5.86.09-3.87 0-4.33-.02-5.86-.09a8 8 0 0 1-2.7-.5 4.5 4.5 0 0 1-1.66-1.08c-.51-.5-.82-1-1.09-1.67a8.02 8.02 0 0 1-.5-2.69c-.07-1.53-.08-1.99-.08-5.86s.01-4.33.08-5.86c.07-1.41.3-2.18.5-2.7a4.5 4.5 0 0 1 1.09-1.66c.5-.5.99-.82 1.67-1.08.5-.2 1.27-.44 2.69-.5 1.53-.07 1.99-.09 5.86-.09zm0-2.61c-3.94 0-4.43.02-5.98.09C6.97.16 5.91.4 5 .76c-.96.37-1.76.87-2.57 1.67A7.1 7.1 0 0 0 .75 5c-.36.92-.6 1.98-.68 3.52-.07 1.55-.09 2.04-.09 5.98 0 3.94.02 4.43.1 5.98.06 1.54.3 2.6.67 3.52a7.1 7.1 0 0 0 1.67 2.57c.8.8 1.62 1.3 2.57 1.67.92.36 1.98.6 3.52.67 1.55.07 2.04.09 5.98.09 3.94 0 4.44-.02 5.98-.09 1.55-.07 2.6-.31 3.53-.67a7.12 7.12 0 0 0 2.57-1.67c.8-.81 1.3-1.62 1.67-2.57.36-.93.6-1.98.67-3.52.07-1.55.09-2.04.09-5.98 0-3.94-.02-4.43-.09-5.98-.07-1.54-.31-2.6-.67-3.52a7.08 7.08 0 0 0-1.67-2.57c-.81-.8-1.62-1.3-2.57-1.67-.93-.36-1.98-.6-3.53-.67C18.93.02 18.43 0 14.5 0z"/>
    </symbol>
    <symbol id="svg-facebook" viewBox="0 0 29 29">
        <path fill="#4E71A8" fill-rule="evenodd"
              d="M21 29h-4.97V17.5h3.22l.74-4.63h-3.66v-1.8c0-.9.61-1.04.92-1.04h2.74V6.4l-3.66-.42c-4.11 0-5.03 3-5.03 4.78v2.1H9.01v4.63h2.44V29H8a8 8 0 0 1-8-8V8a8 8 0 0 1 8-8h13a8 8 0 0 1 8 8v13a8 8 0 0 1-8 8z"/>
    </symbol>
    <symbol id="svg-youtube" viewBox="0 0 512 358.5">
        <path fill="red"
              d="M501.5 56.1A64 64 0 0 0 456.4 11C416.3 0 256 0 256 0S95.7 0 55.7 10.6c-21.5 5.9-39.2 23.6-45.1 45.5C0 96.2 0 179.2 0 179.2s0 83.5 10.5 123.2a64 64 0 0 0 45.1 45.1c40.5 11 200.3 11 200.3 11s160.3 0 200.3-10.5a64 64 0 0 0 45.1-45.1C512 262.8 512 179.7 512 179.7s.4-83.5-10.5-123.6z"/>
        <path fill="#fff" d="M205 256l133.3-76.8L205 102.5V256z"/>
    </symbol>
    <symbol id="svg-floating-phone" viewBox="0 0 52 51">
        <path fill="#FFF" fill-rule="evenodd"
              d="M10.88 22.23a42.35 42.35 0 0 0 18.54 18.52l6.19-6.2c.77-.78 1.88-1 2.85-.7a31.95 31.95 0 0 0 10.04 1.6 2.8 2.8 0 0 1 2.82 2.82v9.85a2.8 2.8 0 0 1-2.82 2.81A47.81 47.81 0 0 1 .68 3.11 2.81 2.81 0 0 1 3.5.3h9.84a2.8 2.8 0 0 1 2.82 2.81c0 3.5.56 6.9 1.6 10.04.3.97.08 2.09-.7 2.86l-6.18 6.21z"/>
    </symbol>
    <symbol id="svg-dnk" viewBox="0 0 320 323">
        <path fill="#03AB43" fill-rule="evenodd"
              d="M146.739 7.772c80.519 0 145.794 65.269 145.794 145.784 0 80.514-65.275 145.784-145.794 145.784-22.229 0-43.296-4.974-62.148-13.871-6.033 3.184-31.891 17.375-48.651 26.249-5.866 3.106-10.097 4.312-13.075 2.242-4.042-2.813-2.281-10.053-.065-19.696 3.746-16.303 9.648-39.901 11.499-47.465C13.112 221.487.944 189.145.944 153.556.944 73.041 66.219 7.772 146.739 7.772z"/>
        <path fill="#FFF" fill-rule="evenodd"
              d="M240.184 154.647c2.386 1.544 4.632 3.003 6.883 4.454 5.327 3.433 10.66 6.856 15.979 10.302.355.23.612.614.915.927l-.175.28c-.35.018-.7.053-1.05.053-4.473.004-8.947.018-13.42-.018a3.07 3.07 0 01-1.554-.468 1521.074 1521.074 0 01-12.687-8.259c-1.633-1.074-3.05-2.363-3.871-4.317-.265 1.989-.535 3.977-.794 5.966-.281 2.158-.538 4.319-.852 6.472-.034.232-.378.594-.583.597-2.677.041-5.355.027-8.177.027l4.268-31.993h8.677l-1.728 12.882c5.545-4.878 12.34-7.996 18.453-12.158.895-.609 1.805-.827 2.873-.812 3.506.052 7.013.02 10.519.02l.14.277-23.816 15.768zm-31.408 16.042l1.57-12.18c-.439-.022-.819-.056-1.199-.056-8.715-.004-17.43.015-26.146-.028-.968-.004-1.214.366-1.321 1.23-.449 3.653-.954 7.3-1.446 11.012h-7.856l4.26-31.993h7.892l-1.715 12.13h28.468l1.76-12.155h7.885l-4.308 32.04h-7.844zm-37.348-9.22l-1.141 9.127h-7.886l.378-2.878h-35.241l-.414 2.885h-7.726c.24-1.925.473-3.806.709-5.687.1-.798.27-1.593.291-2.392.021-.807.289-1.105 1.12-1.076 1.787.062 3.579-.019 5.366.036.78.025 1.004-.271 1.104-1.013.555-4.148 1.116-8.297 1.765-12.431.741-4.719 5.035-8.835 9.756-9.215 2.898-.234 5.821-.167 8.733-.194 3.048-.028 6.098-.079 9.144.012 3.914.117 7.073 1.609 8.724 5.469.846 1.98.452 4.02.17 6.043-.491 3.512-.992 7.024-1.483 10.536-.028.195-.004.398-.004.778h6.635zm-34.014-15.103l-2.014 15.138h21.547l2.014-15.138h-21.547zm-20.754 17.105c-.913 5.714-1.771 11.44-2.8 17.134-.594 3.286-3.312 5.348-6.636 5.351-16.6.016-33.2.02-49.801.046-2.634.004-4.874-.748-6.457-3.022-.762-1.096-.966-2.313-.965-3.619.011-11.344.006-22.687.006-34.031 0-.637-.006-1.275.001-1.913.037-3.199 2.326-5.822 5.475-6.237a19.035 19.035 0 012.467-.175c9.211-.012 18.422-.007 27.634-.007 9.443 0 18.887-.002 28.33 0 3.768 0 6.451 3.318 5.832 7.043-1.075 6.469-2.052 12.954-3.086 19.43zm-52.999 20.742c14.245 0 28.491 0 42.736-.003.43-.001.861-.03 1.289-.076 2.083-.224 4.002-1.852 4.369-3.946.786-4.484 1.474-8.986 2.165-13.486.041-.266-.176-.73-.405-.855-3.365-1.846-6.145-4.412-8.748-7.201-1.135-1.216-2.256-2.446-3.534-3.834-.288 1.443-.558 2.677-.778 3.922-1.352 7.647-4.649 14.17-10.644 19.188-4.237 3.546-9.028 4.992-14.484 4.256-2.836-.382-5.544-1.183-8.186-2.264-.253-.103-.719-.13-.864.023-1.286 1.36-2.523 2.768-3.876 4.276h.96zm31.595-36.085c-1.679-1.951-3.739-3.38-6.068-4.429-4.097-1.845-9.531-.248-11.908 3.766-1.515 2.558-2.459 5.32-3.168 8.18-1.542 6.217-2.078 12.674-4.362 18.717-.085.223.048.666.232.835a24.31 24.31 0 002.309 1.897c2.369 1.686 4.827 3.177 7.852 3.241a7.037 7.037 0 004.214-1.227c2.211-1.488 3.555-3.653 4.661-6.008 1.905-4.055 2.954-8.377 3.74-12.763.684-3.816 1.179-7.668 2.749-11.264.104-.237-.056-.717-.251-.945zm-43.367 31.956c.006.569.259 1.191.559 1.689 1.084 1.8 2.806 2.419 4.793 2.529.705.039 1.216-.144 1.543-.8 1.098-2.198 2.205-4.393 3.326-6.623-4.021-2.748-6.967-6.396-10.246-10.062 0 4.626-.021 8.947.025 13.267zm49.677-41.454c-8.812.04-17.624.084-26.436.12-6.03.026-12.059.035-18.088.063-3.204.016-5.207 2.045-5.207 5.238 0 4.262-.014 8.523.023 12.785.003.381.234.925.533 1.116 3.568 2.282 6.587 5.158 9.206 8.491.605.769 1.271 1.489 2.084 2.435l1.058-5.481c1.116-5.771 3.335-11.016 7.392-15.313 5.268-5.578 11.765-7.792 19.263-6.657 2.371.36 4.65 1.343 7.057 2.067l4.236-4.865c-.416 0-.768-.001-1.121.001zm15.543 1.852c-.817-.684-1.789-1.457-2.774-1.597-2.079-.293-4.212-.17-6.32-.277-.72-.037-1.164.233-1.559.803-1.421 2.05-2.359 4.324-3.046 6.709-.068.237.065.703.253.82 2.864 1.798 4.977 4.375 7.14 6.912 1.464 1.717 2.987 3.383 4.605 5.21.111-.511.186-.794.233-1.083.78-4.853 1.545-9.709 2.341-14.56.188-1.149-.015-2.218-.873-2.937zm-25.818 10.603a76.305 76.305 0 01-1.852-4.523c-.066-.177.169-.637.356-.703.256-.092.796-.029.874.135.726 1.523 1.379 3.082 2.086 4.707-.243.263-.405.592-.614.627-.273.045-.767-.058-.85-.243zM89.623 162.7c-.274.041-.829-.491-.933-.856-1.565-5.524-3.077-11.063-4.599-16.599-.053-.193-.08-.393-.163-.806.15-.146.434-.59.594-.548.337.088.789.376.88.678.756 2.522 1.442 5.066 2.147 7.605.856 3.085 1.702 6.172 2.569 9.253.166.592.144 1.178-.495 1.273zm-3.065 9.643c-.156.143-.365.479-.644.558-.544.155-.807-.168-.937-.731-.75-3.256-1.54-6.503-2.308-9.755-1.129-4.781-2.252-9.563-3.376-14.345-.031-.13-.036-.267-.073-.394-.148-.512-.261-1.035.416-1.226.764-.214.938.294 1.079.924.416 1.856.888 3.699 1.325 5.55 1.447 6.139 2.889 12.281 4.33 18.421.061.26.1.526.188.998zm-5.003 4.768c-.174.161-.46.609-.663.573-.321-.056-.78-.394-.845-.688-.564-2.546-1.059-5.107-1.562-7.666-.851-4.333-1.694-8.667-2.539-13.001-.045-.23-.147-.484-.091-.691.106-.389.217-.967.487-1.083.574-.248.859.181.968.776.296 1.611.643 3.212.957 4.82 1.03 5.279 2.054 10.558 3.08 15.838.058.295.11.591.208 1.122zm-7.266-.812c-.289-.003-.781-.399-.827-.682-.352-2.21-.642-4.432-.876-6.658-.028-.263.398-.576.615-.865.295.249.806.465.851.754.336 2.178.58 4.37.888 6.839-.137.141-.397.615-.651.612zm50.828-4.043l-.837 5.369c.563-.228.954-.325 1.281-.528 2.398-1.486 4.774-3.009 7.181-4.478a2.911 2.911 0 011.379-.401c1.686-.046 3.374-.018 5.153.184l-10.747 6.675 9.09 6.88c-1.997 0-3.684.028-5.369-.022-.353-.011-.734-.261-1.042-.486-2.016-1.466-4.014-2.957-6.021-4.436-1.104-.814-1.345-.713-1.578.608-.249 1.415-.52 2.826-.79 4.283h-3.427l2.26-13.648h3.467zm17.157 8.307c.47-2.326.814-4.678 1.215-7.019.072-.422.15-.843.23-1.288h14.317l-2.306 13.635h-3.431l1.715-10.596c-2.42 0-4.729-.017-7.036.037-.17.004-.405.499-.48.799-.601 2.39-1.141 4.796-1.77 7.178-.148.56-.535 1.067-.861 1.566-.511.783-1.222 1.168-2.186 1.095-.754-.057-1.516-.012-2.448-.012l.522-2.947c1.864-.235 2.105-.398 2.519-2.448zm23.856-8.28l-1.551 9.557c1.272-1.101 2.387-2.058 3.492-3.027 2.204-1.931 4.416-3.854 6.592-5.816.629-.567 1.263-.883 2.128-.813.88.072 1.771.016 2.798.016l-2.269 13.705h-3.428l1.545-8.923c-1.996 1.629-3.809 3.105-5.619 4.584-1.545 1.264-3.06 2.568-4.646 3.775-.456.347-1.104.536-1.682.591-.982.095-1.979.026-3.11.026l2.268-13.675h3.482zm18.318-.053c.982-.056 1.968-.026 3.033-.026l-.713 4.621h9.08l.79-4.575h3.464l-2.304 13.66h-3.42l.917-5.959h-5.078c-1.094.001-2.188.025-3.281-.009-.581-.019-.802.191-.888.782-.249 1.716-.568 3.421-.868 5.179h-3.429c.721-4.403 1.428-8.762 2.167-13.117.037-.218.337-.545.53-.556zm23.319.022l-1.549 9.586c1.525-1.317 2.869-2.471 4.204-3.637 2.107-1.837 4.196-3.695 6.324-5.507.319-.271.804-.446 1.225-.472 1.05-.066 2.108-.022 3.297-.022-.755 4.495-1.477 8.846-2.237 13.19-.038.219-.393.526-.617.541-.92.062-1.846.026-2.901.026l1.561-8.953c-1.059.853-1.968 1.576-2.866 2.313-2.544 2.088-5.08 4.187-7.629 6.268-.217.176-.513.346-.777.354-1.22.038-2.443.017-3.784.017l2.318-13.704h3.431zm18.033.679c.081-.538.258-.761.808-.739.888.034 1.778.009 2.749.009l-.807 5.455c.587-.254.983-.368 1.32-.579 2.363-1.475 4.71-2.977 7.075-4.449.325-.202.717-.399 1.081-.408 1.786-.041 3.573-.018 5.359-.018l.09.223-10.724 6.65 9.074 6.861c-2.022 0-3.812.011-5.602-.017-.194-.002-.393-.223-.578-.36-2.062-1.513-4.119-3.033-6.183-4.544-1.133-.829-1.418-.701-1.646.653-.238 1.413-.511 2.82-.772 4.249h-3.419c.423-2.551.833-5.048 1.253-7.544.306-1.814.648-3.623.922-5.442zm26.713-.135c.341-.495.69-.726 1.296-.696.992.05 1.99-.024 2.98.039.274.017.698.282.768.52 1.255 4.295 2.466 8.603 3.682 12.91.026.093.004.198.004.387-1.06 0-2.117.035-3.167-.029-.219-.013-.5-.355-.609-.609-.329-.762-.377-1.882-.931-2.248-.61-.405-1.659-.137-2.518-.148-.762-.01-1.538.093-2.283-.021-1.676-.259-2.866.266-3.525 1.899-.385.954-1.088 1.293-2.109 1.177-.817-.093-1.652-.019-2.625-.019.175-.309.279-.534.418-.733 2.875-4.142 5.761-8.275 8.619-12.429zm3.469 7.074l-1.306-4.477-3.067 4.477h4.373z"/>
        <path fill="#FFF" fill-rule="evenodd"
              d="M167.299 305.787c-23.272 0-45.327-5.208-65.063-14.522-6.316 3.333-33.388 18.191-50.934 27.481-6.142 3.252-10.571 4.514-13.688 2.346-4.232-2.944-2.389-10.525-.069-20.619 3.922-17.066 10.101-41.775 12.038-49.691-22.181-26.501-34.919-60.361-34.919-97.619C14.664 68.871 83.001.537 167.299.537c84.298 0 152.635 68.334 152.635 152.626 0 84.29-68.337 152.624-152.635 152.624zm0-289.414c-75.998 0-137.607 61.604-137.607 137.596 0 33.591 11.997 64.042 31.993 87.934 1.843 2.308 4.132 5.367 3.563 7.995-4.243 18.888-11.851 50.447-11.851 50.447s24.051-13.118 44.853-24.055c2.078-1.093 4.583-.909 6.685.122 18.605 9.126 42.649 15.154 62.364 15.154 75.998 0 137.606-61.604 137.606-137.597 0-75.992-61.608-137.596-137.606-137.596z"/>
    </symbol>
    <symbol id="problem" viewBox="0 0 58 55">
        <path fill="#323536" fill-rule="evenodd"
              d="M56.88 52.4a5.39 5.39 0 01-4.64 2.6H5.64a5.4 5.4 0 01-4.8-7.87l23.3-44.25A5.41 5.41 0 0128.94 0c2.03 0 3.87 1.11 4.8 2.9l23.31 44.24a5.3 5.3 0 01-.17 5.28zm-1.62-4.34L31.96 3.8a3.36 3.36 0 00-3.02-1.82c-1.3 0-2.42.68-3.02 1.82L2.62 48.06A3.4 3.4 0 005.64 53h46.6a3.4 3.4 0 003.02-4.95zm-26.32.08a4.33 4.33 0 01-4.34-4.3c0-2.39 1.95-4.32 4.34-4.32 2.4 0 4.35 1.93 4.35 4.31s-1.95 4.31-4.35 4.31zm0-6.62a2.32 2.32 0 00-2.33 2.31 2.32 2.32 0 002.33 2.31 2.32 2.32 0 002.33-2.3 2.32 2.32 0 00-2.33-2.32zm0-4.94c-1.57 0-2.85-1.41-2.85-3.16l-.67-17.5c0-2.05 1.09-4.13 3.52-4.13 2.44 0 3.53 2.08 3.53 4.14l-.68 17.53c0 1.7-1.28 3.13-2.85 3.13zm0-22.8c-1.38 0-1.5 1.6-1.5 2.13l.67 17.48c0 .65.39 1.2.83 1.2.45 0 .84-.55.84-1.17l.67-17.53c0-.47-.1-2.1-1.5-2.1z"/>
    </symbol>
    <symbol id="solution" viewBox="0 0 54 74">
        <path fill="#323536" fill-rule="evenodd"
              d="M53.58 13.34l-4 4.02a1 1 0 01-1.4 0 1 1 0 010-1.41l4-4.02a.99.99 0 011.4 0 1 1 0 010 1.41zm-10.36 33.7a20.6 20.6 0 00-8.05 11.65l-.16.82-16.24-.05-.07-.92c0-.05-.6-5.53-8.59-12.43-2.96-2.56-4.46-6.69-4.46-12.26 0-11.74 9.6-21.28 21.4-21.28 11.8 0 21.39 9.54 21.39 21.28 0 6.36-1.7 10.68-5.22 13.19zM27.04 14.57c-10.7 0-19.4 8.65-19.4 19.28 0 4.96 1.26 8.58 3.77 10.74 6.82 5.9 8.63 10.88 9.1 12.88l5.64.01v-16.8l-6.53-5.8a1 1 0 01-.09-1.4.99.99 0 011.4-.1l6.2 5.5 5.86-5.48a.99.99 0 011.4.05 1 1 0 01-.05 1.42l-6.2 5.79v16.83l5.27.01c.6-2.1 2.66-7.8 8.66-12.09 2.95-2.11 4.38-5.9 4.38-11.56 0-10.63-8.7-19.28-19.4-19.28zm.1-6.75a1 1 0 01-.99-1V1a1 1 0 011-1 1 1 0 01.99 1v5.82a1 1 0 01-1 1zM5 17.6c-.25 0-.5-.1-.7-.3L.34 13.34a1 1 0 010-1.41.99.99 0 011.4 0L5.7 15.9a1 1 0 01-.7 1.7zm13.48 47.2h17.15a1 1 0 011 1 1 1 0 01-1 1H18.47a1 1 0 01-1-1 1 1 0 011-1zm4.4 7.19h8.34a1 1 0 011 1 1 1 0 01-1 1h-8.33a1 1 0 01-1-1 1 1 0 011-1z"/>
    </symbol>
    <symbol id="calendar" viewBox="0 0 56 56">
        <path fill="#323536" fill-rule="evenodd"
              d="M48.5 55.96h-41A7.5 7.5 0 010 48.5V12.48A7.5 7.5 0 017.5 5h4.16v2H7.5A5.5 5.5 0 002 12.47v5.4h52v-5.4a5.5 5.5 0 00-5.5-5.49h-4.3V5h4.3a7.5 7.5 0 017.5 7.48v36a7.5 7.5 0 01-7.5 7.48zm5.5-36.1H2V48.5a5.5 5.5 0 005.5 5.48h41A5.5 5.5 0 0054 48.5V19.87zM43.77 35H40.4a3.13 3.13 0 01-3.13-3.12v-3.36c0-1.71 1.4-3.11 3.13-3.11h3.37c1.72 0 3.12 1.4 3.12 3.12v3.35c0 1.72-1.4 3.12-3.13 3.12zm1.13-6.48c0-.62-.51-1.12-1.13-1.12H40.4c-.63 0-1.13.5-1.13 1.13v3.35c0 .62.5 1.13 1.13 1.13h3.37c.62 0 1.13-.5 1.13-1.13v-3.36zM29.53 48.25h-3.36a3.13 3.13 0 01-3.13-3.12v-3.36c0-1.72 1.4-3.12 3.13-3.12h3.36c1.73 0 3.13 1.4 3.13 3.12v3.36c0 1.72-1.4 3.12-3.13 3.12zm1.13-6.48c0-.62-.5-1.12-1.13-1.12h-3.36c-.63 0-1.13.5-1.13 1.12v3.36c0 .62.5 1.13 1.13 1.13h3.36c.63 0 1.13-.5 1.13-1.13v-3.36zM29.53 35h-3.36a3.13 3.13 0 01-3.13-3.12v-3.36c0-1.71 1.4-3.11 3.13-3.11h3.36c1.73 0 3.13 1.4 3.13 3.12v3.35c0 1.72-1.4 3.12-3.13 3.12zm1.13-6.48c0-.62-.5-1.12-1.13-1.12h-3.36c-.63 0-1.13.5-1.13 1.13v3.35c0 .62.5 1.13 1.13 1.13h3.36c.63 0 1.13-.5 1.13-1.13v-3.36zM15.3 48.25h-3.37a3.13 3.13 0 01-3.12-3.12v-3.36c0-1.72 1.4-3.12 3.13-3.12h3.36c1.73 0 3.13 1.4 3.13 3.12v3.36c0 1.72-1.4 3.12-3.13 3.12zm1.13-6.48c0-.62-.5-1.12-1.13-1.12h-3.37c-.62 0-1.13.5-1.13 1.12v3.36c0 .62.51 1.13 1.13 1.13h3.37c.63 0 1.13-.5 1.13-1.13v-3.36zM15.3 35h-3.37a3.13 3.13 0 01-3.12-3.12v-3.36c0-1.71 1.4-3.11 3.13-3.11h3.36c1.73 0 3.13 1.4 3.13 3.12v3.35c0 1.72-1.4 3.12-3.13 3.12zm1.13-6.48c0-.62-.5-1.12-1.13-1.12h-3.37c-.62 0-1.13.5-1.13 1.13v3.35c0 .62.51 1.13 1.13 1.13h3.37c.63 0 1.13-.5 1.13-1.13v-3.36zm25.18-16.66a1 1 0 01-1-1v-8.9a1 1 0 012 0v8.9a1 1 0 01-1 1zM16.59 5h22.59v2H16.59V5zm-2.41 6.86a1 1 0 01-1-1V1.95a1 1 0 012 0v8.9a1 1 0 01-1 1z"/>
    </symbol>
    <symbol id="wallet" viewBox="0 0 66 50">
        <path fill="#323536" fill-rule="evenodd"
              d="M63.82 35.77v8.98c0 2.87-2.45 5.2-5.47 5.2H6.41a5.34 5.34 0 01-5.47-5.2V3.93c0-1.65 1.36-3 3.03-3H58a3.02 3.02 0 013.03 3V8a5.16 5.16 0 012.8 4.53v9.24a2.91 2.91 0 012.1 2.77V33a2.9 2.9 0 01-2.1 2.77zM59.01 3.93c0-.55-.46-1-1.02-1H3.97c-.56 0-1.02.45-1.02 1v2.63c0 .43.36.78.79.78H59v-3.4zm2.8 8.6c0-1.77-1.55-3.2-3.46-3.2H3.74c-.28 0-.54-.06-.79-.13v35.55c0 1.77 1.55 3.2 3.46 3.2h51.94c1.9 0 3.46-1.43 3.46-3.2v-8.84H47.49a2.93 2.93 0 01-2.94-2.9v-8.47c0-1.6 1.32-2.9 2.95-2.9H61.8v-9.1zm2.1 12.01c0-.5-.42-.92-.93-.92H47.5a.93.93 0 00-.94.92V33c0 .51.42.92.93.92h15.48c.52 0 .94-.41.94-.92v-8.46zM52.45 32.4c-2.1 0-3.8-1.62-3.8-3.62s1.7-3.61 3.8-3.61c2.09 0 3.8 1.62 3.8 3.61 0 2-1.71 3.62-3.8 3.62zm0-5.25c-.98 0-1.78.73-1.78 1.63 0 .9.8 1.63 1.78 1.63s1.78-.73 1.78-1.63c0-.9-.8-1.63-1.78-1.63z"/>
    </symbol>
    <symbol id="dialog" viewBox="0 0 153 129">
        <path fill-rule="evenodd"
              d="M131.92 92.56c1.83 8.93 5.24 22.83 5.28 22.97.2.85-.1 1.73-.78 2.28a2.31 2.31 0 01-2.41.3s-22.75-10.47-29.03-13.34a80.87 80.87 0 01-21.57 1.8c-8.83 7.24-21.14 11.75-34.75 11.75-3.95 0-7.87-.38-11.67-1.13-5.8 2.99-21.78 11.45-21.95 11.54a2.3 2.3 0 01-2.46-.2 2.24 2.24 0 01-.85-2.28s2.83-12.42 4.14-18.08C5.77 100.79 0 90.37 0 79.37 0 65.6 9.01 53.5 22.54 46.58 26.66 19.92 54.2.02 87.5.02 123.62 0 153 23.94 153 53.35c0 14.9-7.66 29.12-21.08 39.2zM4.57 79.38c0 9.95 5.53 19.42 15.17 25.97.77.53 1.14 1.47.92 2.37-.67 2.87-2.28 9.92-3.37 14.71 5.56-2.94 14.84-7.83 18.32-9.6.47-.25 1.01-.31 1.53-.2 3.73.78 7.6 1.18 11.52 1.18 24.3 0 44.09-15.45 44.09-34.43 0-18.99-19.78-34.44-44.1-34.44-24.3 0-44.08 15.45-44.08 34.44zm88.18-26.83a6 6 0 00-6.04-5.96 6.06 6.06 0 00-5.63 3.84 43.35 43.35 0 018.16 7.5 5.95 5.95 0 003.5-5.38zM87.5 4.5c-29.79 0-54.6 16.82-59.9 39.82a58.42 58.42 0 0121.06-3.9c10.67 0 20.52 2.8 28.55 7.48a10.7 10.7 0 019.5-5.82c5.85 0 10.6 4.7 10.6 10.46 0 3.8-2.1 7.26-5.39 9.1a32.63 32.63 0 015.4 17.73c0 8.5-3.47 16.36-9.28 22.78a75.52 75.52 0 0016.66-1.95c.5-.12 1.02-.07 1.49.14l25.47 11.7a603.22 603.22 0 01-4.5-20.02c-.17-.86.18-1.74.9-2.25 12.94-9.27 20.37-22.55 20.37-36.43 0-26.93-27.33-48.84-60.93-48.84zm27.65 58.5c-5.85 0-10.6-4.7-10.6-10.46 0-5.77 4.75-10.46 10.6-10.46s10.6 4.7 10.6 10.46c0 5.76-4.75 10.46-10.6 10.46zm0-16.42a6 6 0 00-6.04 5.96 6 6 0 006.04 5.95 6 6 0 006.04-5.95 6 6 0 00-6.04-5.96zM56.22 79.28c0 4.24-3.5 7.69-7.8 7.69s-7.8-3.45-7.8-7.7c0-4.24 3.5-7.69 7.8-7.69s7.8 3.45 7.8 7.7zm-7.8-3.2a3.22 3.22 0 00-3.24 3.2 3.22 3.22 0 003.24 3.19 3.22 3.22 0 003.23-3.2 3.21 3.21 0 00-3.23-3.18zm19.81-4.5c4.3 0 7.8 3.45 7.8 7.7 0 4.24-3.5 7.69-7.8 7.69s-7.8-3.45-7.8-7.7c0-4.24 3.5-7.69 7.8-7.69zm0 10.89a3.22 3.22 0 003.24-3.2 3.22 3.22 0 00-3.24-3.18A3.21 3.21 0 0065 79.28a3.22 3.22 0 003.23 3.19zm-39.63 4.5c-4.3 0-7.8-3.45-7.8-7.7 0-4.24 3.5-7.69 7.8-7.69s7.8 3.45 7.8 7.7c0 4.24-3.5 7.69-7.8 7.69zm0-10.88a3.22 3.22 0 00-3.23 3.19 3.22 3.22 0 003.23 3.19 3.22 3.22 0 003.24-3.2 3.21 3.21 0 00-3.24-3.18z"/>
    </symbol>
    <symbol id="consilium" viewBox="0 0 169 127">
        <path fill-rule="evenodd"
              d="M166.69 117.26a2.3 2.3 0 01-2.3-2.29V92.01c0-.89-.28-5.44-5.77-7.73l-.43-.17a3551.7 3551.7 0 01-8.84 12.11c-3.38 4.58-7.53 7.31-11.11 7.31h-14.69c-4.7 0-8.48-1.94-11.52-5.95-1.38-1.82-7.36-9.97-9.6-13.02l-2.6 1.07a2.3 2.3 0 01-2.99-1.25 2.29 2.29 0 011.25-2.99l5.74-2.35V36.25c0-6.8 8.12-24.7 26.42-24.7 18.3 0 26.06 17.67 26.06 24.7v42.12l4.07 1.7c6.35 2.63 8.6 8.08 8.6 11.94v22.96a2.3 2.3 0 01-2.3 2.3zm-14.97-81c0-4.1-5.6-20.13-21.47-20.13-16.14 0-21.83 16.57-21.83 20.12v40.9l9.55-3.92V68.9l-.2-.09-1.03-.48c-4.65-2.14-6.82-5.55-6.82-10.7V36.98a2.3 2.3 0 012.3-2.28c14.74 0 17.15-10.91 17.24-11.38a2.3 2.3 0 012.7-1.79 2.28 2.28 0 011.8 2.68c-.02.14-2.87 13.82-19.45 14.98v18.44c0 3.42 1.09 5.14 4.16 6.55l1.03.48 1.1.52c.29.07.54.18.77.35 3.13 1.43 7.02 3.12 8.5 3.12 1.18-.02 5.58-1.8 8.9-3.3a47.5 47.5 0 003.44-1.68c1.33-.77 3.58-2.05 3.58-8.04V38.88c-3.43-.34-9.61-1.79-12.5-7.7a2.3 2.3 0 014.13-2c2.69 5.5 10.48 5.23 10.56 5.21a2.29 2.29 0 012.4 2.29v18.95c0 7.66-3.15 10.44-5.9 12-.21.13-1.12.59-2.38 1.2v3.68l9.42 3.94v-40.2zm-12.6 39.88l-1.41-.58v-4.67c-2.93 1.23-6.01 2.33-7.64 2.33-1.79 0-4.32-.87-7.51-2.25v5.33l-15.75 6.46c2.56 3.5 7.63 10.4 8.88 12.06 1.35 1.78 3.63 4.14 7.86 4.14h3.82c-1.1-2.38-4.33-4.34-5.62-4.92a2.29 2.29 0 111.9-4.17c.57.26 4.05 1.91 6.43 4.8 2.48-3 6.11-4.7 6.35-4.8a2.28 2.28 0 111.92 4.16c-1.38.63-4.52 2.56-5.59 4.93h5.48c1.69 0 4.63-1.68 7.4-5.45 1.98-2.67 5.93-8.1 8.2-11.22l-14.73-6.15zm-38.47 48.55a2.29 2.29 0 01-4.6 0V94.81c0-3.97-3.4-8.5-7.9-10.55a515.5 515.5 0 00-15.8-6.57l-20.01 43.22a2.3 2.3 0 01-4.16.02L27.77 77.91a494.75 494.75 0 00-15.26 6.35C8 86.3 4.6 90.84 4.6 94.8v29.88a2.29 2.29 0 01-4.6 0V94.81c0-5.74 4.47-11.93 10.61-14.72 4.71-2.13 14.68-6.12 17.36-7.2l6.3-9.28-1.62-.74c-7.56-3.52-8.15-10.01-8.15-11.92V23.21a9.25 9.25 0 01-1.34-4.36c-.16-2.61 1.73-6.42 4.82-9.71C31.2 5.73 38.45 0 51.11 0c7.83 0 18.79 3.18 26.52 18.34.4.82.34 1.88-.24 2.58-.37.44-.86.72-1.39.83V49.5c0 6.93-3.57 11.05-6.63 12.46l-3.14 1.43 6.45 9.5a559.27 559.27 0 0117.36 7.2c6.15 2.79 10.6 8.98 10.6 14.72v29.88zM55.4 103.38l11.16-24.1-7.32 3.19-6.44 7.98 2.6 12.92zm-5.17 11.17l1.91-4.13-1.87-9.26-1.88 9.52 1.84 3.87zm.04-28.27l4.78-5.92-5.03-9-4.93 8.42 5.18 6.5zm-5.18 17.44l2.63-13.28-6.81-8.54-7.51-2.82 11.69 24.64zm-12.3-29.76l8.52 3.2 4.86-8.3-.05-.01c-.06-.03-3.62-1.56-7.6-3.32l-5.73 8.43zM51.11 4.59c-10.92 0-17.08 4.8-19.78 7.68-2.85 3.03-3.63 5.66-3.58 6.28.08 1.36.29 4.54 7.76 4.54 5.57 0 9.7-1.72 14.07-3.55 4.6-1.93 9.35-3.92 15.84-3.92 2.38 0 4.1.13 5.47.33C65.75 8.37 59.13 4.6 51.11 4.6zM71.4 20.7c-.94-.21-2.06-.36-3.58-.44.19 1.53.95 3.92 3.59 5.37V20.7zm-3.97 37.1c1.48-.67 3.98-3.2 3.98-8.3V30.6a11.6 11.6 0 01-8.2-10.3c-4.5.38-8.1 1.88-11.87 3.45-4.6 1.93-9.35 3.92-15.84 3.92-2.66 0-4.75-.37-6.42-.97v24.25c0 1.23.4 5.4 5.5 7.77 4.66 2.17 11.18 5 12.9 5.74h2.58c1 0 2.52-.19 3.31-.3 1.84-.82 11.8-5.3 14.06-6.35zM62 65.3l-7.02 3.17a2.3 2.3 0 01-.6.17l-.57.08 5 8.95 8.93-3.9L62 65.3zm15.15 35.44a2.3 2.3 0 012.3 2.29v1.2h1.9a2.3 2.3 0 110 4.57h-8.4a2.3 2.3 0 110-4.58h1.9v-1.2a2.3 2.3 0 012.3-2.28zm-9.52 9.34h19.62c1.27 0 2.3 1.03 2.3 2.3v10.93a2.3 2.3 0 01-2.3 2.28H67.62a2.3 2.3 0 01-2.3-2.28v-10.94a2.3 2.3 0 012.3-2.29zm2.3 10.94h15.02v-6.36H69.91v6.36zm77.92-13.72a2.29 2.29 0 110-4.58h.65a2.27 2.27 0 012.26-2.1c1.2 0 2.16.93 2.25 2.1h.77a2.3 2.3 0 110 4.58h-5.93zm-4.74 1.46h15.98a2.3 2.3 0 012.3 2.28v8.91a2.3 2.3 0 01-2.3 2.3H143.1a2.3 2.3 0 01-2.3-2.3v-8.9a2.3 2.3 0 012.3-2.3zm2.3 8.9h11.39v-4.33h-11.4v4.34z"/>
    </symbol>
    <symbol id="checklist" viewBox="0 0 94 145">
        <path fill-rule="evenodd"
              d="M0 144.02V21.84h15.59a2.1 2.1 0 010 4.19H4.18v113.8h85.64V26.03H78.67a2.1 2.1 0 010-4.19H94v122.18H0zm47.52-85.13h30.11a2.1 2.1 0 010 4.18H47.52a2.09 2.09 0 010-4.18zm0 52.44h30.11a2.09 2.09 0 010 4.19H47.52a2.09 2.09 0 010-4.19zm0-26.04h30.11a2.1 2.1 0 010 4.19H47.52a2.1 2.1 0 010-4.19zM14.37 58.25a2.09 2.09 0 012.95 0l6.4 6.42 11.79-11.81a2.08 2.08 0 012.95 0 2.1 2.1 0 010 2.96L25.2 69.1a2.08 2.08 0 01-2.95 0l-7.88-7.9a2.1 2.1 0 010-2.95zm0 52.45a2.09 2.09 0 012.95 0l6.4 6.4 11.79-11.8a2.09 2.09 0 112.95 2.96L25.2 121.55a2.08 2.08 0 01-2.95 0l-7.88-7.9a2.1 2.1 0 010-2.95zm0-26.04a2.08 2.08 0 012.95 0l6.4 6.41 11.79-11.8a2.08 2.08 0 012.95 0 2.1 2.1 0 010 2.95L25.2 95.51a2.08 2.08 0 01-2.95 0l-7.88-7.9a2.1 2.1 0 010-2.95zm6.83-69.01h51.6v20.6H21.2v-20.6zm4.18 16.41h43.24V19.83H25.38v12.23zm30.66-18.22a2.1 2.1 0 01-2.09-2.1c0-.76-.26-7.53-7-7.53-2.04 0-3.59.57-4.73 1.73-2.15 2.17-2.17 5.75-2.17 5.79a2.09 2.09 0 01-2.07 2.11h-.02a2.09 2.09 0 01-2.1-2.07c0-.22 0-5.35 3.4-8.78 1.93-1.97 4.53-2.96 7.7-2.96 8.84 0 11.17 7.67 11.17 11.72a2.1 2.1 0 01-2.09 2.1z"/>
    </symbol>
    <symbol id="slider-arrow-left" viewBox="0 0 51 98.99">
        <path d="M49.59 98.99L0 49.49 49.59 0 51 1.42 2.83 49.49 51 97.57l-1.41 1.42z"/>
    </symbol>
    <symbol id="slider-arrow-right" viewBox="0 0 51 98.99">
        <path d="M1.41 98.99L51 49.49 1.41 0 0 1.42l48.17 48.07L0 97.57l1.41 1.42z"/>
    </symbol>

    <symbol id="srv-diagnostics" viewBox="0 0 72.3 65">
        <path d="M36.7 24.8c.5-.6.4-1.1.4-1.7v-.3-.3c0-.4.3-.7.6-.8.9-.2 1.2 0 1.2 0 .3.2.8.1.9-.3.2-.3.1-.8-.3-.9-.3-.1-.8-.3-2.1-.1-1 .2-1.8 1.1-1.8 2.1v1.1l-.7-.4-.6-.3c-.2-.1-.2-.5-.1-1.1.1-.7.2-1.7-.8-2.1-.5-.2-1.1-.2-1.6.1a3 3 0 0 0-1.4 1.7c-.1.4.1.8.4.9.4.1.8-.1.9-.4 0-.1.4-1.1 1.1-1v.6c-.1.8-.2 2 .9 2.5l.5.3c.6.3 1.2.6 1.6.6.5.2.7.1.9-.2zM45.6 18.4c.9-.4 1.6-1.3 1.6-2.4 0-.4-.3-.7-.7-.7s-.7.4-.7.7c0 .5-.3.9-.7 1.1-.6.3-1.7.6-3.1.9-.9.2-1.5.6-1.6 1.2-.3 1.2 1.2 2.5 2.1 3.2l.3.3c.1.2.3.3.5.3l.4-.1c.3-.2.4-.7.1-1l-.5-.5c-1.4-1.2-1.6-1.7-1.6-1.8l.6-.2c1.4-.3 2.6-.7 3.3-1zM39.4 9.5c-.6.1-.8.5-.8.7-.2.8.6 4 1.4 4.6.6.4 1.1.5 1.5.5.5 0 .8-.2 1.1-.4l.6-.4c.3-.2.7-.5.8-.9.1-.4-.2-.7-.3-.9l-.1-.3c0-.9-.3-1.3-.6-1.7l-.2-.3c-.7-.5-2.6-1.1-3.4-.9zm2.1 1.9l.3.4c.2.2.3.3.3.7 0 .4.1.7.3 1l-.6.4c-.1.1-.3.2-.9-.2-.3-.3-.8-2-.9-2.8.4 0 1.3.3 1.5.5zM36.2 17.4c-.2.3-.1.8.2 1l.4.1c.2 0 .5-.1.6-.3l.2-.2c.4-.5 1.2-1.4 1.2-3.3 0-1.4-.9-1.6-1.5-1.7l-.7-.2-.2-.1v-.1c0-.2 0-.7-.4-1.1-.7-.8-2.7-.8-3.5-.8-.4 0-.7.3-.7.7 0 .4.3.7.7.7a5 5 0 0 1 2.4.3l.1.3c0 .4.1.9.9 1.4l1.1.4.4.1v.3c0 1.3-.5 2-.8 2.4-.3-.2-.4 0-.4.1z"/>
        <path d="M31.3 16.2c-1.4.3-1.7 2.1-1.9 2.7v.1c-.1.4.2.7.5.8h.1c.3 0 .6-.2.7-.6v-.1c.2-1 .5-1.6.8-1.6 1.9-.4 2-2.5 1.8-3.5-.1-.4-.4-.6-.8-.5-.4.1-.6.4-.5.8.1.1.4 1.6-.7 1.9z"/>
        <path d="M71.3 39.6L56.4 24.7 53 28.1 51.9 27A16.8 16.8 0 0 0 38.4 0a17 17 0 0 0-16.9 16.9 17 17 0 0 0 29.1 11.7l1 1-3.2 3.3 14.9 14.9a4 4 0 0 0 2.8 1.1l.8-.1c1.3-.2 2.6-.9 3.6-1.9 2.1-2.4 2.5-5.6.8-7.3zm-32.9-7.9a14.9 14.9 0 0 1 0-29.7 14.9 14.9 0 0 1 0 29.7zm30.5 13.6c-.7.7-1.6 1.2-2.5 1.4-.4.1-1.3.1-1.8-.4L51.2 32.7l5.2-5.2L69.8 41c1 .9.5 2.9-.9 4.3z"/>
        <path d="M46.4 7.9l-1.2 1.6a10 10 0 0 1-8.8 17.7l-.6 1.9A12 12 0 0 0 46.4 7.9zM28.4 16.9a10 10 0 0 1 13-9.5l.6-2a12 12 0 0 0-10.6 21.2l1.2-1.6a9.8 9.8 0 0 1-4.2-8.1zM10.7 11.9C7.9 14.6 8 18.6 8 18.7c0 .5.5 1 1 1 .6 0 1-.5 1-1 0 0 0-3.3 2.1-5.3 1.3-1.3 3.3-1.8 5.8-1.6.6 0 1-.4 1.1-.9 0-.6-.4-1-.9-1.1-3.1-.3-5.6.5-7.4 2.1z"/>
        <path d="M45.8 34.4c-.5-.3-1.1-.1-1.4.4-.7 1.2-1.5 3-1.9 5.1-2.5 14.1-5.2 19.2-7.1 21-1.4 1.4-2.8 2-3.6 1.6-.6-.3-1-1.1-1-2.1v-6.2-3.3c0-2.6-1.7-7.5-4.9-7.5a5 5 0 0 0-3.6 1.7 7.8 7.8 0 0 0-1.9 6c.3 4.6-.1 10.4-1.2 11.7l-.1.1c-1.5 0-6.6-7.7-8.2-13.8-.5-2-.8-4.1-1.1-6.2-.4-3.5-.9-7.1-2.6-10l-.2-.3C4.5 28.3-.2 20.3 3.4 12.4c3.7-8 9.1-8 11.7-8 1 0 2.4.5 4 1l1.6.5c.5.2 1.1-.1 1.3-.6s-.1-1.1-.6-1.3l-1.6-.5c-1.8-.6-3.3-1.1-4.6-1.1-2.8 0-9.2 0-13.5 9.2-4.1 8.8.9 17.5 3.7 22.1v.3c1.5 2.5 1.9 5.8 2.3 9.2.3 2.1.6 4.4 1.1 6.5.7 2.8 2.4 6.4 4.3 9.6 2.3 3.8 4.3 5.7 5.9 5.7.4 0 1-.1 1.6-.7 2.5-2.7 1.8-13.1 1.8-13.2-.1-1.8.4-3.4 1.3-4.5a3 3 0 0 1 2.2-1.1c1.6 0 2.9 3.6 2.9 5.5v9.5c0 1.8.8 3.3 2.2 3.9 1 .4 3 .7 5.8-2 3-2.9 5.6-10.4 7.7-22.1.3-1.9 1.1-3.4 1.7-4.5.3-.5.1-1.1-.4-1.4z"/>
    </symbol>

    <symbol id="srv-therapeutic" viewBox="0 0 69 62.3">
        <path d="M65.5 15.3v-.2c-.2-.9-.6-1.8-1.2-2.3L49.6 0h-17l-2.5 2.5c-1.2.1-3.5.6-5.1 2.2-.9.9-1.4 2-1.7 3.2h-1.5V6.7c0-.6-.4-1-1-1s-1 .4-1 1v1.2H1c-.6 0-1 .4-1 1s.4 1 1 1h18.8v1.3c0 .6.4 1 1 1s1-.4 1-1V9.9h1.4c.3 4.3 4.1 6 6.9 6.5l2.8 3 12.1-.8 6.6 7c-1.2 7.9-1.1 33.2-1.1 34.4h2c0-10.6.2-31.6 1.4-35.4 1.3-4.2 7.9-9.3 9.4-10l.5 1.1L67 59l2-.2-3.5-43.5zM25.1 9.4c0-3.7 3.1-4.6 4.8-4.9v9.9c-1.9-.4-4.8-1.6-4.8-5zm6.8 6.1v-12L33.4 2H48l-3.4 14.6-10.9.8-1.8-1.9zm20.2 7.7l-5.6-6 3.4-14.4 11.8 10.3c-2.8 1.7-8 6.1-9.6 10.1z"/>
        <path d="M22.4 25.7c-3.8-1.4-6.8-1.4-8.8.1C11 27.6 11 30.9 11 31c0 .5.5 1 1 1 .6 0 1-.5 1-1 0 0 0-2.4 1.7-3.6 1.4-1 3.9-1 7 .2.5.2 1.1-.1 1.3-.6a1 1 0 0 0-.6-1.3z"/>
        <path d="M31.3 19.8c-1.7 0-2.9.5-3.9.9s-2 .8-3.4.8c-1.6 0-3.2-.6-4.7-1-1.2-.4-2.3-.8-3.2-.8-1.9 0-6.4 0-9.3 6.3-2.8 6.1.6 11.9 2.5 15.1l.1.2c1 1.6 1.2 3.8 1.5 6 .2 1.4.4 2.9.8 4.4.8 3.2 4.4 10.5 7.1 10.5.3 0 .9-.1 1.3-.6 1.8-1.9 1.3-8.8 1.3-9.1-.1-1.1.2-2.1.8-2.8.4-.4.8-.6 1.2-.6.7 0 1.6 2 1.6 3.3V58.8c0 1.4.6 2.5 1.7 2.9.7.3 2.2.5 4.2-1.4 2.1-2 3.8-6.9 5.2-15 .3-1.6 1-2.9 1.9-4.3 1.4-2.3 3-4.9 3-9.8.1-8-6.3-11.4-9.7-11.4zm5.1 20.4c-.9 1.5-1.8 3-2.2 5-1.7 9.4-3.4 12.7-4.6 13.9-1 1-1.7 1.2-2.1 1-.3-.2-.5-.6-.5-1.1v-4.1-2.2c0-1.9-1.2-5.3-3.6-5.3-1 0-1.9.4-2.7 1.2a5.3 5.3 0 0 0-1.3 4.3c.3 3.5-.2 6.8-.7 7.5-1.1-.5-4.1-5.3-5.1-9l-.7-4.1c-.3-2.4-.6-4.8-1.8-6.8l-.1-.3C9.3 37.4 6.2 32.1 8.6 27c2.4-5.2 5.9-5.2 7.5-5.2.6 0 1.6.3 2.6.7 1.5.5 3.3 1.2 5.3 1.2 1.8 0 3-.5 4.1-1 1-.4 1.9-.8 3.1-.8 2.1 0 7.8 2.3 7.8 9.6.1 4.2-1.3 6.5-2.6 8.7z"/>
    </symbol>

    <symbol id="srv-surgery" viewBox="0 0 50.1 65.3">
        <path d="M50 63.3c-.2-.4-4-10.7-6.5-15.5a122 122 0 0 0-3.6-6.5V41c2.1-2.1 7.7-8.2 7.9-15 .4-8.8-3-13.1-6.3-14.2-1-.3-1.7-.3-2.3.2-1 .8-1 2.3-1 4.1l.1.9c.2 2.7.6 7.6-3.4 13.5-.3.5-.2 1.1.3 1.4.5.3 1.1.2 1.4-.3 4.4-6.5 3.9-12.1 3.7-14.8l-.1-.8c0-.5-.2-2.1.1-2.3.2-.2.8.1 1 .2 2.6 1.1 5 4.8 4.7 12.1-.2 5.5-4.7 10.8-6.9 13.1-.1.1-.4.1-.4-.1a13.2 13.2 0 0 0-12.8-8.2c-6.3 0-10.4 3.6-13.4 7.7-.1.1-.3.2-.4 0-2-1.9-6.4-6.7-6.4-12.4 0-4.7.9-8.2 2.6-10.5.8-1.1 2-1.8 2.9-2.2.2-.1.4 0 .4.2l-.1 2.4c-.1 1.9-.3 4.2 0 6.5.6 4.5 3.2 8.4 3.3 8.6.3.5.9.6 1.4.3.5-.3.6-.9.3-1.4 0 0-2.5-3.7-3-7.7-.3-2.1-.1-4.3 0-6.1.2-2.4.3-3.9-.6-4.6-.3-.3-.8-.4-1.3-.4a8.8 8.8 0 0 0-4.9 3.2c-2 2.7-3 6.5-3 11.7 0 6.8 5.2 12.2 7.3 14.1v.3l-2.2 3.6-1.2 2C4.3 51.6.1 62.7-.1 63.2c-.2.5.1 1.1.6 1.3.5.2 1.1-.1 1.3-.6 0-.1 4.2-11.4 7.5-16.7l1.2-2 2.6-4.3c2.8-4.2 6.6-8 12.6-8 9.5 0 12 8.1 12 12.3 0 9.7-7.7 13.4-12.6 13.4-4.5 0-7.3-1.3-8.3-3.8-.1-.2-.4-.9-1.1-.9-.7 0-1 .8-1.1 1l-3.3 9.2c-.2.5.1 1.1.6 1.3l.3.1c.4 0 .8-.3.9-.7l2.5-7c.1-.2.3-.2.5-.1 1.8 2 4.7 2.9 8.8 2.9 3.6 0 6.3-1.1 8.3-2.5.1-.1.3 0 .4.1l2.4 6.3c.2.4.5.6.9.6l.4-.1c.5-.2.8-.8.6-1.3l-2.8-7.2.1-.3 1.1-1.3a17 17 0 0 0 3.2-8.7c0-.3.4-.3.5-.1l1.4 2.6c2.5 4.7 6.4 15.2 6.4 15.3.1.4.5.7.9.7l.3-.1c1-.2 1.2-.8 1-1.3z"/>
        <path d="M32.2 48.1a7.2 7.2 0 0 0-9.3-9.3 6.8 6.8 0 0 0-3.9 3.9 7.2 7.2 0 0 0 9.3 9.3 6.8 6.8 0 0 0 3.9-3.9zM21 47.6c-1.9-4.5 2.4-8.8 6.8-6.8 1.1.5 1.9 1.3 2.4 2.4 1.9 4.5-2.4 8.8-6.8 6.8a4.7 4.7 0 0 1-2.4-2.4zM21 27.3c1.1 0 1.9-.3 2.6-.6.6-.3 1.2-.5 2-.5 1 0 1.9.3 2.8.6.8.3 1.5.5 2.1.5 1.2 0 4.2 0 6.2-4.2 1.8-4-.5-7.9-1.6-9.8H35c-.6-1-.7-2.3-.9-3.6-.1-.9-.2-1.9-.5-2.8-.4-1.6-2.5-6.9-4.8-6.9-.4 0-.8.2-1.1.5-1.2 1.3-.9 5.5-.9 6 .1.9-.1 1.4-.3 1.6l-.5.1c-.2 0-.7-.1-.7-1.7V5.1 2.6c0-1-.5-1.8-1.3-2.2-.5-.2-1.6-.4-3.1 1-1.4 1.3-2.5 4.5-3.4 9.6a8 8 0 0 1-1.1 2.5c-.9 1.4-1.9 3.2-1.9 6.3 0 5.3 4.2 7.5 6.5 7.5zm-2.9-12.9c.6-.9 1.2-1.9 1.4-3.2 1.1-6.1 2.1-7.7 2.8-8.5.5-.6 1-.7.9-.2v4c0 3 1.6 3.6 2.5 3.7 1 .1 1.7-.3 2.1-.7.7-.7 1-1.8.9-3.2-.1-1.3-.1-3 .1-3.9 0-.2.2-.2.3-.1a15.6 15.6 0 0 1 3 7.6c.2 1.5.4 3.1 1.2 4.4l.1.1c1.1 1.8 2.9 4.9 1.5 7.9s-3.3 3-4.4 3l-1.5-.4c-1-.3-2.2-.7-3.4-.7-1.2 0-2 .3-2.7.6-.6.3-1.1.5-1.8.5-1.2 0-4.5-1.3-4.5-5.6-.1-2.6.7-4 1.5-5.3z"/>
    </symbol>

    <symbol id="srv-implant" viewBox="0 0 42.4 74.6">
        <path d="M23.1 9c3.9-1.4 6.8-1.5 8.6-.2 2.1 1.5 2.1 4.5 2.1 4.5 0 .6.4 1 1 1 .5 0 1-.4 1-1 0-.2 0-4.1-3-6.2-2.3-1.6-5.8-1.6-10.4 0-.5.2-.8.8-.6 1.3.2.5.8.8 1.3.6zM22 35.2H11.6v-3.1c0-.6-.4-1-1-1s-1 .4-1 1v5.1H22c.6 0 1-.4 1-1s-.4-1-1-1z"/>
        <path d="M41.1 7.5C37.6 0 32.2 0 30 0c-1.1 0-2.4.4-3.8.9-1.7.6-3.7 1.3-5.7 1.3-1.7 0-2.9-.5-4.2-1C15 .6 13.6.1 11.7.1 7.6.1 0 4.1 0 13.9c0 5.8 1.9 8.9 3.6 11.7l1.7 3.1v12.8h3.8l2.6 2.8v21.3l8.9 8.9 9-9V43.6l2.3-2.1h5.2V28.6c.3-1.2.7-2.3 1.1-3 2.1-3.4 6.3-10.6 2.9-18.1zM2 13.9C2 5.5 8.3 2.1 11.7 2.1c1.6 0 2.6.4 3.9 1a11 11 0 0 0 4.9 1.2c2.3 0 4.6-.8 6.4-1.4C28 2.4 29.2 2 30 2c2 0 6.3 0 9.3 6.4 3 6.5-.7 12.9-2.7 16.3a26 26 0 0 0-1.2 2.8H7l-1.6-3A17.3 17.3 0 0 1 2 13.9zm25.7 40a51.3 51.3 0 0 0-14-4.1v-5l3.7.7c6.2.8 9.1 2.4 10.2 3.2v5.2zm-13 11.9a28 28 0 0 1 9.1 2.8l-3.2 3.2-5.9-6zm10.6 1.3a31.7 31.7 0 0 0-11.6-3.5v-4.3c2.8.5 9.9 2 14 4.1v1.3l-2.4 2.4zm-11.6-9.8v-5.4c2.8.4 9 1.7 14 4.3v5a64.7 64.7 0 0 0-14-3.9zm14-14.6v3.7a27 27 0 0 0-10-2.8c-1.8-.2-4-.7-4.8-.9l-1.1-1.2H29l-1.3 1.2zM7.3 39.5v-10h27.9v10H7.3z"/>
    </symbol>


    <symbol id="srv-orthopaedy" viewBox="0 0 62.5 52.3">
        <path d="M51.5 26.3H46v-3.6H35.5v3.6H27v-3.6H16.5v3.6H11a11 11 0 0 0-11 11v9a6 6 0 0 0 6 6h50.5a6 6 0 0 0 6-6v-9a11 11 0 0 0-11-11zm-14-1.6H44v1.6h-6.5v-1.6zm-19 0H25v1.6h-6.5v-1.6zM8.8 50.3H6a4 4 0 0 1-4-4v-9c0-.9.1-1.7.4-2.5 1.5.6 3.9 1.8 5.5 3.3.6.6.9 1.3.9 2.2v10zm9.8 0h-7.8v-9.5c0-.7.2-1.4.6-2l.9-1.4c.8-1.3 1.5-2.4 2.3-2.4.6 0 2 1.2 3.2 2.6.5.6.8 1.4.8 2.1v10.6zm11.6 0h-9.6v-10c0-.9.2-1.7.5-2.5.7-1.6 2.1-3.9 4.1-3.9 2.2 0 4.2 4.9 5 8v8.4zm12.4 0H32.2v-7.4c0-.9.2-1.7.5-2.5 1.3-3 3.4-6.6 5.4-6.6 3.1 0 4.2 4.6 4.2 4.7l.1.5.1 1.2v10.1zm-4.4-18.6c-3.1 0-5.5 4-6.8 6.8-1-2.8-3-6.8-6.1-6.8-3.1 0-4.9 2.8-5.8 4.7-1.3-1.5-3.2-3.4-4.9-3.4-1.8 0-2.9 1.6-3.9 3.3l-.7 1a20.7 20.7 0 0 0-6.9-4.5 9 9 0 0 1 7.9-4.7h40.5a9 9 0 0 1 7.6 4.2 21 21 0 0 0-6.9 4.2c-.7-1.5-2.2-4-4.2-4-1.8 0-3.4 1.8-4.4 3.3-.9-1.8-2.5-4.1-5.4-4.1zm6.4 7.4c0-.8.3-1.6.7-2.3.9-1.2 1.9-2.3 2.7-2.3.7 0 1.7 1.3 2.3 2.7.3.6.4 1.2.4 1.8v11.2h-6.1V39.1zm15.9 7.2a4 4 0 0 1-4 4h-3.8V40.1c0-.7.3-1.5.9-1.9a19 19 0 0 1 6.4-3.8c.3.9.5 1.9.5 2.9v9zM7.2 15.1a33 33 0 0 0 6.6-1.3l3.9-.9v4.3c0 2.2 1.4 3.7 4.3 3.7 2.1 0 4-1.5 4-4.6v-4.9a34 34 0 0 1 10.5-.2V17c0 1.7 1.1 4.1 4.6 4.1 2.6 0 4.6-1.6 4.6-4.6v-3.4l3.3.8c2.8.7 4.8 1.2 6 1.2 3.6 0 6.6-2.7 6.6-6V1c0-.6-.4-1-1-1s-1 .4-1 1v8.1c0 2.2-2.1 4-4.6 4-.9 0-3-.5-5.5-1.2-4.9-1.3-11.6-3-18-3-6.3 0-13.2 1.7-18.1 2.9-2.7.7-5 1.2-6.1 1.2-2.7 0-3.9-3-3.9-4.2V1.1c0-.6-.4-1-1-1s-1 .4-1 1v7.8c-.1 2.5 2 6.2 5.8 6.2zm36.5 1.1c0 1.2-.7 2.9-2.4 2.9-2.4 0-2.9-1.5-2.9-2.1v-5.4l5.3 1v3.6zm-19.7.2c0 1.5-.8 2.6-2 2.6-1.4 0-2.3-.8-2.3-2v-4.4c1.2-.3 3-.5 4.3-.7v4.5z"/>
    </symbol>

    <symbol id="srv-ortodont" viewBox="0 0 75.6 41.3">
        <path d="M58.1 0H17.4C7.8 0 0 7.8 0 17.4v6.8c0 2.1 1.5 3.9 3.6 4.2l-.1 2c0 7.4 3.9 10.8 12.2 10.8 5.9 0 9.6-1.7 11.2-5.4 1.6 3.7 5.3 5.4 11.2 5.4s9.6-1.7 11.2-5.4c1.6 3.7 5.3 5.4 11.2 5.4 8.3 0 12.2-3.4 12.2-10.8l-.2-2.1c1.7-.5 3-2.1 3-4v-6.9C75.6 7.8 67.8 0 58.1 0zm4.5 22.2c-.6-2-1.3-3-2.3-3-.4 0-1.4 0-2.3 3h-2.6v4.4H51c1.4-5.9 5.5-12.9 9.7-12.9s8.3 7 9.7 12.9h-5v-4.4h-2.8zm-5.3 8.7v-6.7h6v6.7h-6zm3.1 2l-.2.6-.2-.6h.4zM60 22.2l.2-.6.2.6H60zm-19.9 0c-.6-2-1.3-3-2.3-3-.4 0-1.4 0-2.3 3h-2.6v4.4h-4.4c1.4-5.9 5.5-12.9 9.7-12.9s8.3 7 9.7 12.9h-5v-4.4h-2.8zm-5.3 8.7v-6.7h6v6.7h-6zm3.1 2l-.2.6-.2-.6h.4zm-.3-10.7l.2-.6.2.6h-.4zm-19.9 0c-.6-2-1.3-3-2.3-3-.4 0-1.4 0-2.3 3h-2.6v4.4H5.9c1.4-5.9 5.5-12.9 9.7-12.9s8.3 7 9.7 12.9h-5v-4.4h-2.6zm-5.4 8.7v-6.7h6v6.7h-6zm3.2 2l-.2.6-.2-.6h.4zm-.4-10.7l.2-.6.2.6h-.4zm.6 17.1c-7.3 0-10.2-2.6-10.2-8.8l.1-1.9h4.8V33H13c.6 2 1.3 3 2.3 3 .4 0 1.4 0 2.3-3h2.7v-4.4h5.4l.1 1.9c.1 6.2-2.9 8.8-10.1 8.8zm22.4 0c-7.3 0-10.2-2.6-10.2-8.8l.1-1.9h4.8V33h2.6c.6 2 1.3 3 2.3 3 .4 0 1.4 0 2.3-3h2.7v-4.4h5.4l.1 1.9c.1 6.2-2.8 8.8-10.1 8.8zm22.5 0c-7.3 0-10.2-2.6-10.2-8.8l.1-1.9h4.8V33h2.6c.6 2 1.3 3 2.3 3 .4 0 1.4 0 2.3-3h2.7v-4.4h5.4l.1 1.9c.1 6.2-2.8 8.8-10.1 8.8zm13-14.9a2 2 0 0 1-1.3 2c-1.5-6.5-6-14.7-11.7-14.7-5.2 0-9.4 6.8-11.2 12.9-1.8-6.1-6-12.9-11.2-12.9S28.8 18.5 27 24.6c-1.8-6.1-6-12.9-11.2-12.9C9.9 11.6 5.3 20 3.9 26.5A2.2 2.2 0 0 1 2 24.3v-6.8C2 8.9 8.9 2 17.4 2h40.7c8.5 0 15.5 6.9 15.5 15.5v6.9z"/>
    </symbol>

    <symbol id="srv-childrens-dentistry" viewBox="0 0 59.7 61.8">
        <path d="M28.9 38.5c-2.3 0-4.1 3-4.4 3.6-.3.5-.1 1.1.4 1.4l.5.1c.3 0 .7-.2.9-.5.6-1.1 1.9-2.6 2.7-2.6.8 0 2.2 1.5 2.9 2.5.3.5.9.6 1.4.3.5-.3.6-.9.3-1.4-.6-.6-2.5-3.4-4.7-3.4zM40.8 36.9c0-1.5-1.2-2.7-2.7-2.7s-2.7 1.2-2.7 2.7 1.2 2.7 2.7 2.7 2.7-1.2 2.7-2.7zm-2.7.7c-.4 0-.7-.3-.7-.7s.3-.7.7-.7.7.3.7.7-.3.7-.7.7zM19.5 39.6c1.5 0 2.7-1.2 2.7-2.7s-1.2-2.7-2.7-2.7-2.7 1.2-2.7 2.7 1.2 2.7 2.7 2.7zm0-3.5c.4 0 .7.3.7.7 0 .4-.3.7-.7.7s-.7-.3-.7-.7c0-.3.3-.7.7-.7zM29.1 50.4c-1.8 0-3.3 1.5-3.3 3.3s1.5 3.3 3.3 3.3 3.3-1.5 3.3-3.3-1.5-3.3-3.3-3.3zm0 4.6c-.7 0-1.3-.6-1.3-1.3s.6-1.3 1.3-1.3 1.3.6 1.3 1.3-.6 1.3-1.3 1.3z"/>
        <path d="M28.9 44.6c-4.7 0-8.6 3.9-8.6 8.6s3.9 8.6 8.6 8.6a8.6 8.6 0 1 0 0-17.2zm0 15.2c-3.6 0-6.6-3-6.6-6.6s3-6.6 6.6-6.6 6.6 3 6.6 6.6-2.9 6.6-6.6 6.6zM27.9 16.1l.6-.2c.4-.3.5-1 .2-1.4a12 12 0 0 1-2.4-5.7c0-2.4 3.1-6.8 6.1-6.8 3.2 0 5.8 3.4 5.8 5.6 0 2.4-1.5 4-3.6 4-1.9 0-2.6-1.9-2.6-2a1 1 0 0 0-1.3-.6 1 1 0 0 0-.6 1.3c0 .1 1.1 3.4 4.5 3.4 3.2 0 5.6-2.6 5.6-6S36.6.1 32.4.1c-4.3 0-8.1 5.5-8.1 8.8 0 3.1 2.7 6.7 2.8 6.9.2.2.5.3.8.3zM39.3 16.5c-1.9-1.6-5.3-1-6.8.7-.4.4-.3 1 .1 1.4.4.4 1 .3 1.4-.1.8-.8 3-1.4 4-.5 1.1 1 1.4 3.6.9 5.3l-.3 1.1c-.1.4-.2 1.1-.4 1.2 0 0-.2.1-.7-.1-2-.5-4.1-2-4.1-2-.3-.2-.7-.2-1-.1l.2-.8c.1-.7-.1-3.5-.9-4.3a4.1 4.1 0 0 0-2.3-1.1l-2.6.3c-1 .2-1.7 2.4-1.7 2.4-.6 2 0 3 .6 4.2l.2.4c.3.6 1.1 1.5 2.7 1.5l1.5-.2c.5-.2 1.1-.6 1.5-1.2 0 .3.2.5.4.7a15.7 15.7 0 0 0 5.9 2.5l1.2-.3c.8-.5 1.1-1.5 1.3-2.5l.2-1c.8-2.5.5-5.9-1.3-7.5zm-8.7 6c0 .5-.7 1.2-.9 1.3-1.3.4-1.7 0-1.9-.3l-.2-.4c-.6-1.1-.8-1.5-.5-2.7v-.1l.3-.9 1.9-.2.9.5c.2.4.5 2 .4 2.8zM37 29.8c-.2.5.1 1.1.6 1.3 4.1 1.5 6.2 4.3 6.2 4.3.2.3.5.4.8.4l.6-.2c.4-.3.5-1 .2-1.4-.1-.1-2.4-3.2-7.1-5-.5-.2-1.1.1-1.3.6z"/>
        <path d="M53.8 35.2h-.2a19.6 19.6 0 0 0-11.4-12c-.5-.2-1.1.1-1.3.6-.2.5.1 1.1.6 1.3a17 17 0 0 1 10.9 15.8c0 11.2-7.3 15-12.7 16.9a1 1 0 0 0-.6 1.3c.1.4.5.7.9.7l.3-.1c7.2-2.5 11.5-6.6 13.2-12.5.5.3 1.1.4 1.6.4l1.5-.3c1.7-.7 2.8-2.6 3-5.1.5-4.9-5.6-6.9-5.8-7zm3.9 6.7c-.2 1.7-.8 3-1.8 3.5-.6.3-1.2.2-1.8-.3.2-1.3.4-2.7.4-4.2 0-1.2-.1-2.3-.3-3.3 1.3.6 3.7 2 3.5 4.3zM16.9 24.2c.2.9.4 1.8 1.2 2.3l1.1.3 1-.1c2.2-.6 4.4-2.1 4.4-2.1.5-.3.6-.9.2-1.4s-.8-.6-1.3-.2c0 0-2 1.4-3.8 1.8l-.6.1-.3-1.1-.2-1c-.4-1.6-.2-3.9.8-4.8.9-.8 2.9-.3 3.6.4.4.4 1 .4 1.4.1.4-.4.4-1 .1-1.4-1.4-1.6-4.6-2.1-6.4-.6-1.7 1.5-2 4.6-1.4 6.9l.2.8zM20.6 29.8c-.2-.5-.8-.8-1.3-.6-4.7 1.8-7 4.9-7.1 5a1 1 0 0 0 .2 1.4l.6.2c.3 0 .6-.1.8-.4 0 0 2.1-2.8 6.2-4.3.5-.2.8-.8.6-1.3z"/>
        <path d="M20 57.7C14.5 55.8 7.3 52 7.3 40.9c0-10.1 7.7-13.9 8-14.1.5-.2.7-.8.5-1.3-.2-.5-.8-.7-1.3-.5-.3.1-6.2 3-8.3 10.2H6c-.3.1-6.4 2.1-5.9 6.9.2 2.5 1.3 4.4 3 5.1l1.5.3a3 3 0 0 0 1.6-.4c1.7 5.9 6.1 10 13.2 12.5l.3.1c.4 0 .8-.3.9-.7.2-.5-.1-1.1-.6-1.3zM5.7 45.1a2 2 0 0 1-1.8.3c-1-.4-1.6-1.7-1.8-3.5-.2-2.3 2.2-3.8 3.6-4.4a18 18 0 0 0-.3 3.4c-.1 1.4 0 2.8.3 4.2z"/>
    </symbol>

    <symbol id="srv-gigiena-i-profilaktika" viewBox="0 0 90.1 73.3">
        <path d="M62.7 28.6c-2.5-.2-4.5.4-6 1.8-2.3 2.2-2.3 5.4-2.3 5.6 0 .5.5 1 1 1 .6 0 1-.5 1-1 0 0 0-2.6 1.7-4.1 1-1 2.5-1.4 4.5-1.3.5 0 1-.4 1.1-.9 0-.5-.4-1-1-1.1z"/>
        <path d="M79.4 22.7c-2.6 0-4.4.7-6 1.3a10 10 0 0 1-3.6.9c-2.2 0-4.1-.7-5.8-1.3-1.3-.5-2.5-.9-3.6-.9-2.2 0-7.5 0-11 7.5-3.3 7.2.7 14.1 2.9 17.9l.2.3c1.2 2 1.5 4.6 1.8 7.3.2 1.7.4 3.5.9 5.2 1 3.7 5.2 12.4 8.3 12.4.4 0 .9-.1 1.4-.7 2.1-2.2 1.5-10.4 1.5-10.7-.1-1.4.3-2.7 1-3.5.5-.5 1.1-.8 1.7-.8 1.4 0 2.5 2.8 2.5 4.2l-.1 4.2-.1 3.4c0 1.6.6 2.8 1.7 3.3.9.4 2.5.4 4.7-1.7 2.5-2.4 4.5-8.2 6.2-17.8.4-2 1.3-3.5 2.4-5.2 1.7-2.7 3.6-5.8 3.6-11.5.1-9-5.3-13.8-10.6-13.8zm5.4 24.4c-1.1 1.8-2.2 3.5-2.6 5.9-2 11.3-4.2 15.3-5.6 16.7-1.3 1.2-2.1 1.5-2.5 1.3-.3-.1-.5-.7-.5-1.4l.1-3.4.1-4.3c0-2.1-1.6-6.2-4.5-6.2-1.2 0-2.3.5-3.2 1.4a6.4 6.4 0 0 0-1.5 5c.3 4.5-.3 8.8-.9 9.2-1.2-.1-5.1-6.2-6.4-10.9-.4-1.6-.6-3.3-.8-5-.4-2.8-.7-5.7-2.1-8.1l-.4-.2c-2-3.4-5.8-9.8-2.9-16 2.9-6.3 7.2-6.3 9.2-6.3.7 0 1.7.4 2.9.8 1.8.6 3.9 1.4 6.5 1.4 1.6 0 2.9-.5 4.3-1 1.5-.6 3.1-1.2 5.3-1.2 4.2 0 8.7 3.7 8.7 11.8.1 5.2-1.6 7.9-3.2 10.5zM46.5 29.2l5.2-5.2 5.1-5.1 2-2c.7-.7.7-1.9 0-2.7l-7.3-7.3.2-.2a3.7 3.7 0 0 0 0-5.2l-.2-.2a3.7 3.7 0 0 0-5.2 0L1.1 46.2c-.7.7-1.1 1.7-1.1 2.6s.4 1.9 1.1 2.6l.2.2a3.6 3.6 0 0 0 5.2 0l28-28 7.3 7.3c.4.4.9.6 1.3.6s1-.2 1.3-.6l2.1-1.7zM5.1 50.3c-.6.6-1.8.6-2.4 0l-.2-.3c-.3-.3-.5-.7-.5-1.2s.2-.9.5-1.2L47.7 2.5c.7-.7 1.7-.7 2.4 0l.2.2c.7.7.7 1.7 0 2.4L5.1 50.3zm30.9-28L50.1 8.2l7.3 7.3-1.3 1.3-2-2c-.4-.4-1-.4-1.4 0s-.4 1 0 1.4l2 2-1.1 1.1-4.6-4.6c-.4-.4-1-.4-1.4 0s-.4 1 0 1.4l4.6 4.6-1.2 1.1-2-2c-.4-.4-1-.4-1.4 0s-.4 1 0 1.4l2 2-1.2 1.2-4.6-4.6c-.4-.4-1-.4-1.4 0s-.4 1 0 1.4l4.6 4.6-1.2 1.2-2-2c-.4-.4-1-.4-1.4 0s-.4 1 0 1.4l2 2-1.1 1.1-7.3-7.2z"/>
    </symbol>

    <symbol id="srv-parodont" viewBox="0 0 59.2 57.3">
        <path d="M58.2 57c-.6 0-1-.4-1-1V37.3c0-3.1-2.5-5.4-5.9-5.4-1.6 0-2.9.5-3.8 1.4C45.9 35.1 46 38 46 38c0 .6-.4 1-.9 1.1-.5 0-1-.4-1.1-.9 0-.2-.2-3.8 2.1-6.2 1.3-1.4 3-2 5.3-2 4.5 0 7.9 3.2 7.9 7.4V56c-.1.6-.5 1-1.1 1zM1 57c-.6 0-1-.4-1-1V37.3c0-4.2 3.4-7.4 7.9-7.4 2.2 0 4 .7 5.3 2 2.3 2.4 2.1 6 2.1 6.2 0 .6-.5 1-1.1.9-.6 0-1-.5-.9-1.1 0 0 .1-2.9-1.5-4.7A5.2 5.2 0 0 0 8 31.8c-3.4 0-5.9 2.3-5.9 5.4V56c-.1.6-.5 1-1.1 1zM20.1 30.5l-.5-.1c-.5-.3-.7-.9-.4-1.3.1-.1 1.5-2.8 4-2.8 1.1 0 2.1.4 2.8.7.9-1.6 2.5-3.8 4.2-3.6 1.7.2 3.2 2.5 4 3.9 1.3-.3 3.7-.5 5.6.9.4.3.5 1 .2 1.4a1 1 0 0 1-1.4.2c-1.7-1.4-4.5-.4-4.5-.4l-.8.3-.4-.8c-.8-1.6-2.2-3.5-2.9-3.6-.5-.1-1.8 1.6-2.7 3.5l-.7 1.2-1-1s-1-.9-2.4-.9c-1 0-1.9 1.3-2.2 1.8-.2.4-.5.6-.9.6z"/>
        <path d="M35.9 57.3c-2.5 0-3.6-3-3.6-5a214.6 214.6 0 0 0-1.5-15c-.3-2.5-1-3.3-1.2-3.4-.3.3-1 1.4-1.2 3.4l-.8 10.2-.4 5c-.2 1.9-1.6 4.6-3.7 4.6-1.7 0-4.5-1.6-4.6-5.9a138 138 0 0 0-1.6-16.3c-.3-1.5-1.9-4.8-3.7-8.4a50.8 50.8 0 0 1-6.2-16C7.4 4.4 12.2 0 19.1 0c4.8 0 7.6 1.6 9.3 2.5l1.1.5 1.5-.6c1.9-.9 5.2-2.3 9.2-2.3 6 0 11.7 5.8 11.7 11.9 0 3-2.2 6.7-4.7 11.1a41.1 41.1 0 0 0-5.6 12.4c-1.4 7.9-1.9 14.9-1.9 16.9 0 2.3-1.4 4.9-3.8 4.9zm-6.4-25.4c.6 0 2.8.4 3.3 5.2l.3 3c.6 5.8 1.2 11 1.2 12.3 0 1.2.7 3 1.6 3 1 0 1.8-1.7 1.8-3.1 0-2 .5-9.2 2-17.2.8-4.3 3.5-8.9 5.8-13 2.3-3.9 4.4-7.6 4.4-10.1 0-5.1-4.7-9.9-9.7-9.9-3.6 0-6.5 1.3-8.4 2.1-1.1.5-1.8.8-2.4.8-.6 0-1.2-.3-2-.8-1.5-.8-4-2.2-8.3-2.2-5.8 0-9.6 3.5-9.6 8.6 0 3.1 3.3 9.7 6 15.1 1.9 3.8 3.6 7.1 3.9 8.9.8 4.1 1.5 13.1 1.7 16.6.1 3 1.8 4 2.6 4 .5 0 1.5-1.4 1.7-2.8l.4-5 .8-10.2c.1-2.5 1.1-5.3 2.9-5.3z"/>
    </symbol>

    <symbol id="srv-krasivaya-ulybka" viewBox="0 0 94.1 39">
        <path d="M94 .9c-.4-1.2-2-.9-2.5-.8l-1.1.2c-3.1.5-11.4 2-15.5 2.1l-4.7.1c-5 .1-10.7.2-12.8.7-1.2.2-2.8.8-4.4 1.4-2.2.8-4.8 1.7-5.9 1.7-1.4 0-3.5-.8-5.2-1.5l-2-.8a40 40 0 0 0-14.3-1.4A151 151 0 0 1 2.1.1C.7-.2.2.4.1.8c-.3.7.2 1.4 1.4 2l.5.3 2 1.2A119 119 0 0 0 12 19l1 1.5c3.4 5.1 8 12 15.4 15.5 5.5 2.6 11.6 3 15.7 3l3.1-.1h1.2c2.8 0 12.5-.3 18.4-3.7a47.1 47.1 0 0 0 15.9-18.4l.5-.9c3-5.1 5.5-9.7 6-10.7l2.3-1.4.6-.4c.6-.3 2.4-1.2 1.9-2.5zm-12.6 14l-.5.9c-3.3 5.6-7.8 13.4-15.1 17.7a40 40 0 0 1-17.4 3.4h-1.3c-3.3.1-11.2.4-17.8-2.8a39 39 0 0 1-14.6-14.8l-1-1.5c-2.2-3.3-5-8.7-6.7-12l3.4 1.7c.9 1.2 5.5 7.8 9.9 12C25 24 31.8 28.6 47 28.6c14.3 0 20.4-4.3 26.2-9.6 5-4.4 10.2-10.5 11-11.4l1.7-.8-4.5 8.1zm-3.8-2.8c-2.6 1.8-6.8 4-8.4 3.4l-.9-.4-.4.8c-1 1.9-5.7 4-7.9 3.1l-.9-.4-.4.8c-1 2-3.4 2.8-4.8 3.1-2.8.6-5.6.2-6.3-.3l-.5-.4-.6.4c-1.9 1.1-7.6 1.1-11.3-3l-.3-.4h-.5c-4.1.4-6.3-1.1-8.5-3.4l-.4-.4-.5.1c-2.3.3-4.5-1.8-4.6-1.8l-.2-.2H20l-1.9-.6c-1.1-.4-2.8-2-3.5-2.6L14 9c10.2 4 21.7 6.1 33.5 6.1 8.8 0 20.7-1.1 32.5-5.6a32 32 0 0 0-2.4 2.6zM72.5 17l-.6.5A32 32 0 0 1 47 26.6c-14.5 0-21-4.3-25.3-8.5l-3.1-3.3.7.2c.7.6 2.9 2.3 5.5 2.2 2.8 2.9 5.5 4 9.3 3.7 4 4 9.9 4.6 12.9 3.3a13.2 13.2 0 0 0 7.4.3 9.6 9.6 0 0 0 5.7-3.4c3 .6 7.4-1.3 9.1-3.6 1 .1 2.2-.1 3.3-.5zm-25-4A87.7 87.7 0 0 1 5.2 2.7c4.9.8 13.9 2 20.5 1.9 8.6-.2 11.5.6 13.6 1.3l1.9.7c2 .8 4.2 1.7 5.9 1.7 1.5 0 3.9-.9 6.5-1.8 1.6-.6 3.1-1.1 4.2-1.3 1.9-.4 7.7-.5 12.4-.6l4.7-.1c4-.1 11.4-1.4 15.2-2A84.6 84.6 0 0 1 47.5 13z"/>
    </symbol>

    <symbol id="srv-whitening" viewBox="0 0 52.3 67.8">
        <path d="M37.8 31.4l-3.4-13.1-12-2.4 11.9-3.3L37 0l3.4 12.6 11.9 2.6-11.7 3.3-2.8 12.9zm-7.7-15.8l5.8 1.2 1.8 6.9 1.4-6.5 5.9-1.6-6-1.3-1.8-6.5-1.4 6.2-5.7 1.6zM8.7 23.4a.9.9 0 0 1-.9-.9c0-.2 0-4 2.7-6.6 1.7-1.6 4.1-2.3 7.1-2.1.5 0 .9.5.8 1 0 .5-.5.8-1 .8-2.5-.2-4.4.4-5.7 1.6-2.1 2-2.1 5.2-2.1 5.3 0 .5-.4.9-.9.9z"/>
        <path d="M18.5 67.8c-3.4 0-8.5-10-9.9-14.9-.5-2.1-.8-4.2-1.1-6.4a23 23 0 0 0-2.3-9.1l-.2-.3c-2.7-4.5-7.6-12.9-3.6-21.6 4.2-9 10.5-9 13.2-9 1.3 0 2.8.5 4.5 1.1 2.1.7 4.5 1.6 7 1.6 2 0 3.4-.5 4.9-1.1.5-.2 1 0 1.2.5.2.5 0 1-.5 1.2-1.6.7-3.3 1.3-5.6 1.3-2.8 0-5.3-.9-7.6-1.7-1.6-.5-2.9-1-3.9-1-2.5 0-7.9 0-11.5 7.9-3.6 7.8 1 15.7 3.5 19.9l.2.3c1.6 2.8 2.1 6.3 2.5 9.8.3 2 .5 4.2 1 6.1 1.5 5.7 6.5 13.6 8.1 13.6l.2-.1c1.3-1.4 1.5-7.6 1.2-11.5-.2-2.3.5-4.4 1.8-5.8 1-1.1 2.2-1.6 3.5-1.6 3.1 0 4.7 4.7 4.7 7.2v9.3c0 1 .4 1.8 1 2.1.9.4 2.2-.2 3.6-1.6 1.8-1.8 4.5-6.8 7-20.7.5-2.8 1.8-4.9 3.1-7.1 2-3.3 4.1-6.6 4.1-13.1l-.2-2.6c-.1-.5.3-.9.8-1 .5-.1.9.3 1 .8l.2 2.8c0 7-2.3 10.7-4.3 14a19 19 0 0 0-2.9 6.5c-2 11.5-4.6 18.8-7.5 21.6-2.7 2.6-4.7 2.4-5.6 2-1.3-.6-2.1-2-2.1-3.8v-6-3.3c0-1.8-1.3-5.4-2.9-5.4a3 3 0 0 0-2.2 1.1 5.7 5.7 0 0 0-1.3 4.5c0 .1.7 10.3-1.7 12.9-.4.5-1 .6-1.4.6z"/>
    </symbol>

    <symbol id="srv-sedatsiya" viewBox="0 0 31 76.2">
        <path d="M29.3 50.4l-.6-2.4V37.4c.7-1.1 2.3-4.1 2.3-6.9 0-4.1-2.5-7.1-4.4-9.3l-.1-.2c-1.1-1.3-3.1-3.3-5.5-5.7L15.7 10a32.5 32.5 0 0 1-5.3-7.9l.4-.4c.4-.4.4-1 0-1.4a1 1 0 0 0-1.4 0L9 .7c-2 2-6.2 6.1-7 11.8-.5 3.4-.4 6.3-.4 9.4l-.1 6.6a52 52 0 0 1-.8 6C.3 36.6 0 38.3.1 41c.1 4.5.7 8.2 2.8 11.5 1 1.5 1.8 2.3 2.6 3l.7.7c.2.2.5.3.7.3.3 0 .5-.1.7-.3.4-.4.4-1 0-1.4l-.9-.8c.5-.8 1.7-2.4 2.9-3.4l.6-.5a9.7 9.7 0 0 0 3.6-4.5c.6-1.8 1.1-4 1.3-5.2l.1-.6c.1-.2.1-.4.3-.4l.1.1v8.4l-.8 2.6c-.7.1-1.3.8-1.3 1.5v1.9c0 .9.7 1.5 1.5 1.5h3.5v1.9a2.7 2.7 0 0 0-2.3 2.6h-.3c-1 0-1.8.8-1.8 1.8V63c0 .7.4 1.2.9 1.6v6l1.1 4.6c.2.7.8 1.1 1.5 1.1h9.1c.7 0 1.3-.5 1.5-1.2l1.2-4.4v-6.1c.5-.3.9-.9.9-1.6v-1.2c0-1-.8-1.8-1.8-1.8H28c0-1.3-1-2.4-2.2-2.6v-1.9h3.4c.9 0 1.5-.7 1.5-1.5v-2c.1-.9-.6-1.6-1.4-1.6zM26.9 49l.3 1.4H17l.4-1.4h9.5zM15.6 37.4c-1.1 0-2 .8-2.3 1.9l-.1.7c-.2 1.1-.7 3.2-1.3 4.9-.6 1.6-1.5 2.4-3 3.6l-.6.5c-1.2 1-2.4 2.5-3 3.5l-.8-1.2C2.9 48.8 2.2 45.9 2 40.8c-.1-2.5.2-4.2.6-6.1.3-1.6.6-3.5.8-6.2.2-2.4.1-4.6.1-6.8 0-3-.1-5.8.4-9.1a16 16 0 0 1 4.9-9c1 1.9 2.8 5.1 5.4 7.7l5.4 5.4 5.4 5.5.2.2c1.7 2.1 3.9 4.6 3.9 8 0 2.4-1.6 5.1-2 5.8a2 2 0 0 0-.3 1.1V47h-9v-7.8c-.1-1.1-1.5-1.8-2.2-1.8zm11.9 32.8l-1 4h-8.4l-.9-3.8v-5.6h10.4v5.4zm.9-7.4H16.3v-.9H28.5v.9zm-2.3-2.9h-7.7c0-.3.3-.6.6-.6h6.4c.4 0 .7.3.7.6zm-2.2-2.6h-3.2v-1.8h3.2v1.8zm4.9-3.9H15.7v-1h13.2v1z"/>
        <path d="M13.8 16.2c-2.6 0-4.6 2.9-4.6 6.6s2 6.6 4.6 6.6 4.6-2.9 4.6-6.6-2.1-6.6-4.6-6.6zm0 11.1c-1.2 0-2.6-1.9-2.6-4.6s1.4-4.6 2.6-4.6c1.2 0 2.6 1.9 2.6 4.6s-1.4 4.6-2.6 4.6z"/>
    </symbol>

    <symbol id="srv-vosstanovlenie-zhevatelnoy-funktsii-zubov" viewBox="0 0 50.3 69.6" overflow="scroll">
        <path d="M50.1 50.3c-.2-.3-.6-.4-.9-.4-.2 0-5.3.6-6.4-3.5-1-4 2.9-5.6 3.1-5.7.3-.1.6-.4.6-.8s-.1-.7-.4-.9c-.2-.1-4.8-3.6-2.6-7.6 1.9-3.3 5-2.1 5.3-2 .4.2.8.1 1.1-.2.3-.3.4-.7.2-1.1-.1-.3-3.1-7.2-11.4-7.2-4.7 0-7 .6-8.9 1.1-1.2.3-2.1.5-3.4.5-1.6 0-3.4-.4-5.2-.7-2.1-.4-4.2-.9-6.3-.9-9.4 0-15 6.3-15 16.9 0 15.8 10.5 31.9 18 31.9 2.5 0 3.9-.4 5.1-.7 1-.3 2-.5 3.4-.5 1.2 0 2.2.3 3.3.5 1.3.3 2.6.6 4.3.6 4 0 8.2-4.1 10.8-7.9a56.6 56.6 0 0 0 5.3-11.4zm-6.8 10.3c-2.9 4.2-6.6 7-9.2 7-1.5 0-2.6-.3-3.8-.6-1.2-.3-2.4-.6-3.8-.6-1.7 0-2.8.3-3.9.6-1.2.3-2.4.6-4.6.6-5.9 0-16-14.8-16-29.9 0-9.4 4.7-14.9 13-14.9 1.9 0 3.9.4 5.9.8 2 .4 3.9.8 5.6.8 1.5 0 2.6-.3 3.9-.6 1.8-.4 4-1 8.4-1a10 10 0 0 1 8.4 4.2c-1.8 0-4 .7-5.5 3.3-2.1 3.7-.1 7.2 1.9 9.2a6.4 6.4 0 0 0-2.9 7.3c1 3.8 4.4 4.9 7 5a36 36 0 0 1-4.4 8.8z"/>
        <path d="M13.3 24.7A10.9 10.9 0 0 0 4 33.5c-.1.5.3 1 .9 1.1H5c.5 0 .9-.4 1-.9 0-.2.9-5.8 7.7-7 .5-.1.9-.6.8-1.2-.2-.5-.7-.9-1.2-.8zM19.7 24.9l-2.9-.4c-.5-.1-1.1.3-1.1.8-.1.5.3 1.1.8 1.1l2.9.4h.1c.5 0 .9-.4 1-.9.1-.4-.2-.9-.8-1zM26.4 21.3l.4-.1.2-.1.1-.1.1-.2.1-.1v-.1l.1-.3a20 20 0 0 0-5.8-14.9C15.6-.3 7.3 0 6.9 0c-.5 0-.9.4-1 1 0 .4-.2 8.8 5.5 14.7a20 20 0 0 0 15 5.6zM20.2 6.8c2.8 2.6 4.5 6.3 5 10.9L13 5.5a1 1 0 0 0-1.4 0 1 1 0 0 0 0 1.4l12.2 12.2c-4.6-.4-8.3-2-10.9-4.8C8.8 10.1 8.1 4.3 8 2c2.2.1 8 .8 12.2 4.8z"/>
    </symbol>
    <symbol id="svg-zen" viewBox="0 0 48 48">
        <path fill="#2C3036" fill-rule="evenodd"
              d="M23.74 0C13.84 0 6.99.03 3.47 3.47.03 6.99 0 14.17 0 23.74c10.63-.33 15.49-.6 19.36-4.38 3.79-3.87 4.05-8.73 4.38-19.36zM3.47 44.53C.03 41.01 0 33.83 0 24.27c10.63.32 15.49.58 19.36 4.37 3.79 3.87 4.05 8.73 4.37 19.36-9.89 0-16.74-.03-20.26-3.47zM24.27 48c.32-10.63.58-15.49 4.37-19.36 3.87-3.79 8.73-4.05 19.36-4.37 0 9.57-.03 16.74-3.47 20.26C41.01 47.97 34.16 48 24.27 48zm0-48c.32 10.63.58 15.49 4.37 19.36 3.87 3.79 8.73 4.05 19.36 4.38 0-9.58-.03-16.75-3.47-20.27C41.01.03 34.16 0 24.27 0z"
              clip-rule="evenodd"/>
        <path fill="url(#paint0_linear)" fill-rule="evenodd"
              d="M28.64 28.64c-3.79 3.87-4.05 8.73-4.37 19.36 9.89 0 16.74-.03 20.26-3.47C47.97 41.01 48 33.83 48 24.27c-10.63.32-15.49.58-19.36 4.37zM0 24.27C0 33.84.03 41 3.47 44.53 6.99 47.97 13.84 48 23.73 48c-.32-10.63-.58-15.49-4.37-19.36-3.87-3.79-8.73-4.05-19.36-4.37zM23.74 0C13.84 0 6.99.03 3.47 3.47.03 6.99 0 14.17 0 23.74c10.63-.33 15.49-.6 19.36-4.38 3.79-3.87 4.05-8.73 4.38-19.36zm4.9 19.36C24.85 15.5 24.59 10.63 24.27 0 34.16 0 41 .03 44.53 3.47 47.97 6.99 48 14.17 48 23.74c-10.63-.33-15.49-.6-19.36-4.38z"
              clip-rule="evenodd"/>
        <path fill="#fff" fill-rule="evenodd"
              d="M48 24.27v-.53c-10.63-.33-15.49-.6-19.36-4.38-3.79-3.87-4.05-8.73-4.37-19.36h-.54c-.32 10.63-.58 15.49-4.37 19.36-3.87 3.79-8.73 4.05-19.36 4.38v.53c10.63.32 15.49.58 19.36 4.37 3.79 3.87 4.05 8.73 4.37 19.36h.54c.32-10.63.58-15.49 4.37-19.36 3.87-3.79 8.73-4.05 19.36-4.37z"
              clip-rule="evenodd"/>
        <defs>
            <linearGradient id="paint0_linear" x1="48" x2="48" y1="48" y2="0" gradientUnits="userSpaceOnUse">
                <stop stop-color="#fff" stop-opacity=".01"/>
                <stop offset=".48" stop-color="#fff" stop-opacity=".01"/>
                <stop offset=".76" stop-color="#fff" stop-opacity=".04"/>
                <stop offset="1" stop-color="#fff" stop-opacity=".1"/>
                <stop offset="1" stop-color="#fff" stop-opacity=".1"/>
            </linearGradient>
        </defs>
    </symbol>
    <symbol id="svg-vk" viewBox="0 0 468 468">
        <path fill="#5181b8"
              d="M305.9 0H162.3C31.2 0 0 31.2 0 162.1v143.6C0 436.8 31 468 162.1 468h143.6C436.8 468 468 437 468 305.9V162.3C468 31.2 437.1 0 305.9 0z"/>
        <path fill="#fff"
              d="M389.5 319.6c-3.2-9.5-14.1-23.4-28.8-40-8-9.5-20-19.5-23.4-24.6-5.1-6.6-3.7-9.5 0-15.1 0-.2 41.7-58.7 45.8-78.7 2.2-7.3 0-12.4-10.2-12.4h-34.1c-8.8 0-12.7 4.6-14.9 9.8 0 0-17.3 42.4-41.9 69.7-8 8-11.5 10.5-15.8 10.5-2.2 0-5.4-2.4-5.4-9.8v-67.8c0-8.8-2.4-12.4-9.8-12.4h-53.6c-5.4 0-8.8 4.1-8.8 7.8 0 8.3 12.2 10.2 13.7 33.2V240c0 11-2 12.9-6.3 12.9-11.5 0-39.7-42.4-56.3-91.2-3.4-9-6.6-12.9-15.4-12.9H90.2c-9.8 0-11.7 4.6-11.7 9.8 0 9 11.5 53.9 53.9 113.1 28.3 40.5 68 62.4 104.1 62.4 21.7 0 24.4-4.9 24.4-13.2v-30.7c0-9.8 2-11.7 9-11.7 5.1 0 13.7 2.4 33.9 21.9 23.2 23.2 27.1 33.6 40 33.6h34.1c9.7 0 14.6-4.9 11.6-14.4z"/>
    </symbol>

</svg>
